<svg width="722" height="455" viewBox="0 0 722 455" fill="none" xmlns="http://www.w3.org/2000/svg">
<g clip-path="url(#clip0_1183_6886)">
<path d="M291.605 38.4112L276.452 27.6722L228.534 0L35.6456 16.3978L0.159197 37.0218L0 91.5558L5.05087 94.4793V94.5372L10.1017 97.4173V97.4752L15.1526 100.341V100.399L20.2903 103.264L39.5097 114.365L39.365 166.178L85.7346 192.953L100.887 198.786L143.798 174.587L156.36 181.838L171.513 187.989L205.725 168.696L205.798 139.62L291.46 91.3242L291.605 38.4112Z" fill="#D4DCEE"/>
<path d="M466.026 264.882L430.54 285.506L430.381 340.04L435.432 342.964V343.022L440.483 345.902V345.974L445.533 348.825V348.883L450.671 351.763L469.891 362.849L469.746 414.663L516.13 441.437L531.283 447.27L574.193 423.071L586.741 430.322L601.894 436.473L636.106 417.181L636.193 388.105L721.841 339.809L722 286.896L706.847 276.157L658.915 248.484L466.026 264.882Z" fill="#D4DCEE"/>
<path d="M438.76 274.146L439.498 273.712L443.985 271.02L445.707 269.935C446.807 269.254 447.892 268.574 448.949 267.894L450.816 266.678C451.786 266.056 452.726 265.419 453.71 264.797L455.548 263.538C456.446 262.93 457.328 262.307 458.197 261.699L459.919 260.469L462.452 258.602L464.015 257.43L466.591 255.404L467.821 254.42C469.051 253.421 470.238 252.437 471.367 251.438L472.814 250.237C473.349 249.759 473.841 249.282 474.348 248.79L475.057 248.124C476.041 247.198 476.968 246.271 477.85 245.345C478.053 245.142 478.241 244.925 478.429 244.723C479.109 243.985 479.775 243.275 480.397 242.523C480.644 242.248 480.89 241.958 481.121 241.669L481.729 240.96C482.235 240.337 482.713 239.73 483.176 239.107L483.379 238.832C484.088 237.877 484.754 236.922 485.362 235.938C485.709 235.388 486.056 234.838 486.375 234.288C486.519 234.042 486.635 233.781 486.78 233.535C486.925 233.289 487.228 232.71 487.431 232.29C487.634 231.871 487.981 231.176 488.242 230.626C488.502 230.076 488.603 229.816 488.763 229.41C488.922 229.005 488.936 229.02 489.009 228.831C489.269 228.18 489.486 227.543 489.703 226.892C489.983 225.995 490.215 225.097 490.398 224.2C490.398 224.099 490.47 223.983 490.499 223.867C490.528 223.751 490.499 223.534 490.572 223.361C490.658 222.941 490.716 222.521 490.774 222.116C490.832 221.711 490.861 221.494 490.89 221.175C490.919 220.857 490.962 220.336 490.991 219.916C491.02 219.496 490.991 219.525 490.991 219.323C490.991 219.12 490.991 218.874 490.991 218.642L491.136 165.729C491.136 166.149 491.136 166.569 491.136 167.003V167.437C491.501 161.406 489.84 155.426 486.418 150.446C481.497 142.862 472.148 135.206 458.37 127.478C456.229 126.291 454.029 125.176 451.93 124.091C450.251 123.165 448.573 122.267 446.879 121.413C445.186 120.559 443.522 119.575 441.828 118.707C429.782 111.839 416.792 106.777 403.274 103.684C389.503 100.641 375.332 99.8299 361.304 101.281C346.323 102.841 331.605 106.319 317.51 111.63C301.217 117.881 285.478 125.492 270.461 134.381C254.116 143.875 241.164 152.94 231.602 161.576C222.041 170.211 216.01 178.625 213.512 186.817C212.649 189.629 212.239 192.56 212.296 195.5C212.296 195.312 212.296 195.11 212.296 194.907L212.137 249.455C212.215 255.231 214.008 260.853 217.289 265.607C222.402 273.442 231.684 281.219 245.134 288.938C246.842 289.922 248.549 290.877 250.257 291.832L251.936 292.686C253.079 293.279 254.237 293.873 255.395 294.437C256.061 294.77 256.741 295.06 257.421 295.378C258.448 295.87 259.49 296.362 260.518 296.825C261.256 297.158 261.965 297.448 262.718 297.752C263.702 298.157 264.672 298.591 265.612 298.967L265.815 299.054C266.162 299.199 266.51 299.3 266.857 299.445C268.304 300.009 269.751 300.559 271.286 301.066L273.254 301.717L277.002 302.889L278.044 303.208L279.766 303.671L281.141 304.033C282.661 304.424 284.195 304.8 285.714 305.133L286.988 305.393C288.074 305.625 289.144 305.827 290.23 306.016L290.91 306.146C292.29 306.387 293.665 306.604 295.035 306.797H295.281L295.961 306.913C297.331 307.164 298.706 307.381 300.086 307.564H300.332L301.012 307.694L305.136 308.346C305.218 308.339 305.301 308.339 305.383 308.346L306.063 308.461C307.51 308.708 308.841 308.925 310.245 309.113H310.737L311.881 309.258C313.067 309.402 314.254 309.532 315.455 309.648L316.816 309.779L317.785 309.865C318.885 309.967 320 310.025 321.1 310.097H321.432C322.706 310.169 323.98 310.213 325.253 310.242H330.912H332.359H333.155C334.11 310.242 335.065 310.155 336.05 310.097H337.323C338.886 309.996 340.449 309.88 342.012 309.721H342.374C344.217 309.537 346.069 309.32 347.931 309.069L349.798 308.78C351.043 308.592 352.288 308.418 353.532 308.201L353.995 308.129L356.05 307.738L358.945 307.173L361.521 306.595C362.491 306.377 363.475 306.175 364.416 305.929L367.021 305.277L369.915 304.51L372.563 303.758L375.458 302.875L376.268 302.643L378.873 301.789L380.552 301.254C382.289 300.661 384.04 300.067 385.777 299.416C402.124 293.372 417.948 285.995 433.087 277.359C435.017 276.259 436.908 275.169 438.76 274.088V274.146ZM490.991 168.19C490.991 168.494 490.919 168.812 490.875 169.116C490.832 169.42 490.745 169.956 490.673 170.375C490.673 170.375 490.673 170.462 490.673 170.506C490.83 169.736 490.946 168.958 491.02 168.175L490.991 168.19ZM490.528 171.215C490.339 172.124 490.103 173.022 489.819 173.907C490.103 173.022 490.339 172.124 490.528 171.215ZM215.176 207.064C215.017 206.746 214.901 206.427 214.771 206.109C215.002 206.659 215.248 207.209 215.538 207.744C215.407 207.513 215.277 207.296 215.176 207.064Z" fill="#D4DCEE"/>
<path d="M183.235 28.1211L183.076 82.6551L69.916 92.2941L70.0752 37.7601L183.235 28.1211Z" fill="#0B225C"/>
<path d="M84.3163 85.6091L84.1571 140.143L0 91.5574L0.159197 37.0234L84.3163 85.6091Z" fill="#0B225C"/>
<path d="M276.453 27.6719L276.308 82.2059L164.74 147.045L164.899 92.4961L276.453 27.6719Z" fill="#0B225C"/>
<path d="M156.505 127.29L156.361 181.838L130.527 166.917L130.687 112.383L156.505 127.29Z" fill="#0B225C"/>
<path d="M190.717 107.418L190.572 161.952L156.359 181.838L156.504 127.289L190.717 107.418Z" fill="#0B225C"/>
<path d="M85.8941 138.419L85.7349 192.953L39.3652 166.179L39.51 111.645L85.8941 138.419Z" fill="#0B225C"/>
<path d="M130.686 112.383L130.527 166.917L85.7344 192.954L85.8936 138.42L130.686 112.383Z" fill="#0B225C"/>
<path d="M164.9 92.511L190.718 107.418L156.52 127.304L130.687 112.368L85.8948 138.419L39.583 111.644L84.4475 85.5929L0.160156 37.0218L35.6465 16.3978L228.491 0L276.424 27.6722L164.9 92.511ZM118.588 65.7361L183.294 28.1064L70.1343 37.7454L118.501 65.7361" fill="#F22F81"/>
<path d="M408.021 139.868C407.341 139.477 406.646 139.115 405.952 138.768L405.315 138.478C404.794 138.232 404.273 138.001 403.737 137.783L403.347 137.61L403.115 137.537C402.174 137.176 401.205 136.843 400.221 136.553L400.004 136.481L399.598 136.38C398.976 136.206 398.339 136.047 397.688 135.916L397.283 135.815H397.08C396.347 135.67 395.594 135.54 394.822 135.424C394.07 135.309 393.375 135.236 392.521 135.164H392.362H391.798L390.104 135.062H386.53C385.517 135.062 384.489 135.135 383.447 135.28H383.245L382.405 135.381L381.132 135.526L379.988 135.699L378.686 135.902L378.324 135.974H377.919C376.674 136.206 375.429 136.466 374.141 136.785C373.23 137.002 372.274 137.248 371.247 137.523L370.306 137.812L368.251 138.42L367.817 138.565L367.339 138.724C365.892 139.187 364.445 139.679 362.925 140.244L362.636 140.36C361.189 140.91 359.611 141.517 358.034 142.154L357.31 142.444C355.718 143.109 354.068 143.891 352.389 144.557L351.391 145.005C349.683 145.772 347.946 146.583 346.152 147.437L345.414 147.799C343.648 148.648 341.839 149.545 339.986 150.491L339.422 150.766C337.512 151.75 335.529 152.792 333.517 153.863L332.359 154.485C330.372 155.537 328.341 156.646 326.267 157.814L325.167 158.436C322.967 159.666 320.753 160.926 318.466 162.257L314.414 164.645L313.155 165.398L310.94 166.729L310.622 166.917C309.102 167.844 307.612 168.755 306.179 169.653L305.354 170.174L301.982 172.316L300.679 173.17L297.959 174.993L296.757 175.804C295.686 176.513 294.673 177.251 293.675 177.931L293.197 178.264C292.068 179.06 290.997 179.842 289.955 180.609L289.087 181.275L286.945 182.91L286.004 183.663L284.08 185.24L283.356 185.848C282.545 186.543 281.764 187.295 281.026 187.903C280.476 188.424 279.955 188.916 279.448 189.423L279.058 189.814L277.972 190.942L277.495 191.478L276.655 192.433L276.221 192.969L275.932 193.316C275.681 193.625 275.449 193.929 275.237 194.228C274.962 194.604 274.716 194.966 274.47 195.342L274.224 195.748L273.819 196.428C273.616 196.804 273.413 197.18 273.24 197.557L273.095 197.875C272.979 198.15 272.863 198.411 272.762 198.671V198.787C272.546 199.382 272.371 199.991 272.241 200.61C272.136 201.13 272.074 201.658 272.053 202.188C272.053 202.188 272.053 202.289 272.053 202.333C272.046 202.419 272.046 202.507 272.053 202.593L271.908 257.127C271.908 256.997 271.908 256.852 271.908 256.722C271.936 256.193 271.999 255.666 272.096 255.144V255.144C272.223 254.518 272.402 253.903 272.632 253.306C272.627 253.244 272.627 253.181 272.632 253.118L272.965 252.337C272.965 252.235 273.052 252.12 273.109 252.004C273.283 251.628 273.486 251.251 273.703 250.875C273.92 250.499 273.992 250.368 274.151 250.122C274.311 249.876 274.282 249.891 274.369 249.775C274.6 249.413 274.861 249.037 275.121 248.661C275.382 248.284 275.758 247.821 276.105 247.401C276.25 247.213 276.395 247.04 276.554 246.866C276.713 246.692 277.089 246.229 277.379 245.911L277.856 245.375L278.956 244.246L279.333 243.856C279.854 243.335 280.404 242.813 280.982 242.292C281.706 241.612 282.43 240.932 283.312 240.223L284.036 239.615C284.644 239.094 285.281 238.573 285.961 238.037L286.887 237.299C287.582 236.749 288.334 236.199 289.029 235.649L289.897 234.998C290.939 234.217 292.01 233.435 293.139 232.639L293.617 232.494C294.601 231.8 295.614 231.047 296.671 230.381L297.872 229.571L300.593 227.762L301.895 226.922L305.282 224.766L306.092 224.245C307.539 223.347 308.987 222.436 310.55 221.509L313.024 220.062L314.341 219.266L318.394 216.892C320.661 215.58 322.89 214.311 325.08 213.086L326.18 212.449C328.264 211.291 330.29 210.177 332.287 209.121L333.445 208.498C335.457 207.427 337.425 206.385 339.35 205.401L339.929 204.996C341.781 204.031 343.59 203.134 345.356 202.304L346.094 201.942C347.888 201.093 349.64 200.282 351.347 199.51L352.331 199.062C354.025 198.324 355.66 197.615 357.252 196.949L357.976 196.659C359.553 196.023 361.102 195.415 362.578 194.865L362.882 194.749C364.401 194.199 365.863 193.692 367.296 193.302L368.193 193.012C368.888 192.781 369.568 192.578 370.248 192.39L371.203 192.1C372.173 191.84 373.128 191.579 374.098 191.362C375.371 191.044 376.631 190.798 377.861 190.566L378.642 190.421L379.93 190.204L381.074 190.031L382.347 189.886L383.389 189.77C384.446 189.669 385.473 189.597 386.486 189.553H389.135H389.974C390.553 189.553 391.118 189.582 391.667 189.64H392.391C393.173 189.64 393.94 189.785 394.707 189.9C395.459 190.016 396.154 190.146 396.95 190.291L397.572 190.436C398.209 190.581 398.846 190.725 399.468 190.899L400.105 191.073C401.089 191.362 402.044 191.695 402.999 192.057L403.622 192.303C404.143 192.515 404.664 192.747 405.185 192.998C405.402 193.099 405.619 193.186 405.821 193.302C406.535 193.63 407.23 193.991 407.906 194.387C413.694 197.735 416.589 201.546 416.589 205.821L416.734 151.287C416.734 147.003 413.839 143.191 408.05 139.853" fill="#0B225C"/>
<path d="M475.968 160.199C475.968 160.633 475.939 161.068 475.881 161.502C475.881 161.82 475.809 162.139 475.765 162.457C475.722 162.775 475.635 163.325 475.563 163.76L475.389 164.613C475.2 165.551 474.964 166.479 474.68 167.392C474.419 168.246 474.087 169.115 473.754 169.983C473.58 170.403 473.406 170.808 473.218 171.228C473.03 171.647 472.697 172.385 472.422 172.95L471.756 174.238C470.742 176.116 469.611 177.929 468.37 179.665L468.167 179.955C467.531 180.823 466.836 181.706 466.127 182.589L465.403 183.472C464.766 184.224 464.115 184.919 463.435 185.729L462.856 186.381C461.959 187.336 461.032 188.291 460.063 189.275L459.354 189.956C458.413 190.867 457.458 191.765 456.459 192.676C455.461 193.588 454.129 194.717 452.913 195.745L451.683 196.743C450.829 197.438 449.975 198.191 449.093 198.842L447.544 200.043L445.011 201.968L443.275 203.242L440.626 205.152L438.803 206.44L435.908 208.38L434.056 209.624L430.8 211.737C430.235 212.114 429.671 212.475 429.077 212.837C427.63 213.764 426.11 214.704 424.591 215.631L423.867 216.079C421.995 217.208 420.066 218.347 418.078 219.495C403.026 228.37 387.265 235.985 370.956 242.261C369.205 242.912 367.468 243.534 365.732 244.142L364.053 244.707L360.637 245.821L357.67 246.718L355.036 247.5L352.142 248.296C351.259 248.513 350.391 248.759 349.522 248.962C348.654 249.164 347.569 249.439 346.628 249.656C345.687 249.873 344.906 250.062 344.052 250.235C343.198 250.409 342.098 250.626 341.157 250.829L338.48 251.306L334.717 251.914L332.865 252.189C331.012 252.45 329.16 252.681 327.307 252.869C325.455 253.058 323.95 253.173 322.271 253.289H320.983C319.767 253.361 318.551 253.419 317.336 253.448H315.889C314.731 253.448 313.573 253.448 312.415 253.448H310.968C309.434 253.448 307.9 253.448 306.366 253.289H306.033C304.586 253.202 303.138 253.086 301.691 252.971L300.316 252.826C299.129 252.71 297.943 252.58 296.756 252.421L295.613 252.276C294.05 252.059 292.487 251.827 290.924 251.552L290.272 251.422C288.753 251.147 287.248 250.858 285.742 250.539C284.237 250.221 282.689 249.83 281.155 249.439L279.794 249.077L277.03 248.281C275.785 247.92 274.526 247.529 273.282 247.124L271.313 246.472C269.866 245.951 268.347 245.416 266.87 244.837C266.465 244.678 266.046 244.547 265.626 244.374C264.656 243.997 263.687 243.563 262.731 243.158L260.532 242.232C259.504 241.783 258.476 241.291 257.449 240.784L255.394 239.829C254.25 239.265 253.107 238.671 251.949 238.078L250.271 237.21C248.563 236.312 246.855 235.357 245.133 234.315C231.693 226.538 222.411 218.737 217.288 210.912C216.446 209.639 215.691 208.309 215.03 206.932C213.141 203.147 212.15 198.977 212.136 194.746L211.977 249.295C212.055 255.07 213.848 260.692 217.129 265.446C222.348 273.387 231.683 281.217 245.133 288.936C246.841 289.92 248.548 290.875 250.256 291.831L251.935 292.684C253.078 293.278 254.236 293.871 255.394 294.436C256.06 294.768 256.74 295.058 257.42 295.376C258.448 295.868 259.49 296.361 260.517 296.824L262.717 297.75C263.701 298.155 264.671 298.589 265.611 298.966L265.814 299.052C266.161 299.197 266.509 299.299 266.856 299.429C268.303 300.008 269.75 300.558 271.285 301.064L273.253 301.716C274.512 302.121 275.757 302.512 277.001 302.873L278.043 303.206L279.765 303.669L281.14 304.031C282.66 304.422 284.194 304.798 285.714 305.131L286.987 305.392C288.073 305.623 289.144 305.826 290.229 306.014L290.909 306.144C292.356 306.39 293.688 306.607 295.092 306.81H295.584L296.727 306.955C297.914 307.114 299.101 307.244 300.302 307.374L301.662 307.505L302.632 307.592C303.732 307.693 304.846 307.751 305.946 307.823H306.279C307.552 307.895 308.826 307.953 310.1 307.982H312.299C313.443 307.982 314.6 307.982 315.758 307.982H317.206H318.002C318.957 307.982 319.912 307.895 320.896 307.838H322.17C323.733 307.736 325.296 307.606 326.859 307.461H327.22C329.058 307.273 330.911 307.042 332.763 306.796L334.645 306.492C335.889 306.303 337.12 306.115 338.379 305.898L338.842 305.826L340.897 305.421C341.881 305.218 342.851 305.044 343.791 304.827C344.732 304.61 345.499 304.451 346.367 304.248L349.262 303.568L351.867 302.888L354.761 302.092C355.644 301.846 356.527 301.571 357.395 301.31C358.264 301.05 359.378 300.731 360.29 300.413L361.1 300.167L363.705 299.299L365.384 298.734C367.121 298.126 368.858 297.504 370.609 296.853C386.922 290.577 402.688 282.963 417.745 274.087C419.675 272.958 421.566 271.834 423.419 270.715H423.491L424.229 270.266L428.716 267.487L430.438 266.373L433.68 264.274L435.547 263.015C436.516 262.364 437.457 261.727 438.441 261.076L440.293 259.787C441.191 259.151 442.074 258.514 442.927 257.877C443.521 257.457 444.1 257.038 444.664 256.603C445.532 255.967 446.357 255.33 447.197 254.678L448.76 253.477C449.643 252.783 450.482 252.03 451.336 251.393L452.566 250.38C453.796 249.352 454.983 248.325 456.112 247.312L457.487 246.067C458.022 245.575 458.514 245.083 459.021 244.62L459.73 243.94C460.714 242.984 461.64 242.029 462.523 241.045L463.102 240.394C463.782 239.641 464.448 238.946 465.07 238.136L465.794 237.253C465.996 237.007 466.214 236.761 466.402 236.515C466.908 235.878 467.371 235.256 467.849 234.619L468.052 234.33C468.761 233.345 469.426 232.361 470.034 231.435C470.382 230.871 470.729 230.306 471.047 229.742C471.192 229.467 471.308 229.221 471.453 228.96C471.597 228.7 471.901 228.106 472.104 227.686C472.306 227.267 472.654 226.529 472.9 225.95C473.146 225.371 473.276 225.125 473.435 224.705C473.594 224.285 473.609 224.314 473.681 224.112C473.942 223.446 474.159 222.78 474.362 222.114C474.651 221.188 474.883 220.262 475.071 219.35C475.106 219.236 475.135 219.12 475.158 219.003C475.158 218.829 475.158 218.655 475.244 218.482C475.331 218.048 475.389 217.613 475.447 217.179C475.505 216.745 475.534 216.542 475.563 216.224C475.592 215.906 475.635 215.356 475.664 214.921C475.664 214.719 475.664 214.516 475.664 214.313C475.664 214.111 475.664 213.85 475.664 213.604L475.809 159.07C475.809 159.505 475.809 159.953 475.809 160.387" fill="#0B225C"/>
<path d="M456.402 192.648C446.754 201.274 433.98 210.214 418.079 219.467C403.027 228.342 387.266 235.957 370.957 242.233C356.937 247.639 342.274 251.205 327.337 252.841C313.498 254.287 299.517 253.525 285.917 250.584C271.615 247.348 257.904 241.904 245.279 234.446C231.838 226.669 222.557 218.869 217.434 211.043C212.31 203.218 211.008 195.143 213.526 186.816C216.025 178.614 222.055 170.201 231.617 161.575C241.178 152.949 254.126 143.884 270.461 134.38C285.476 125.471 301.215 117.841 317.51 111.571C331.605 106.26 346.323 102.783 361.304 101.223C375.332 99.7713 389.503 100.582 403.274 103.625C417.281 106.858 430.715 112.202 443.116 119.473C456.904 127.433 466.258 135.321 471.178 143.136C473.549 146.651 475.092 150.657 475.691 154.853C476.29 159.049 475.93 163.327 474.637 167.364C472.119 175.566 466.041 183.984 456.402 192.619V192.648ZM314.572 216.948C328.157 213.6 346.61 205.153 369.929 191.606C393.423 177.954 407.963 167.248 413.549 159.491C419.136 151.733 417.293 145.192 408.021 139.866C398.874 134.578 387.581 133.555 374.141 136.797C360.701 140.039 342.162 148.53 318.523 162.27C295.368 175.72 280.934 186.391 275.222 194.284C269.51 202.176 271.232 208.762 280.389 214.039C289.564 219.336 300.949 220.301 314.544 216.934" fill="#F22F81"/>
<path d="M613.617 276.605L613.458 331.139L500.312 340.793L500.472 286.259L613.617 276.605Z" fill="#0B225C"/>
<path d="M514.696 334.095L514.537 388.643L430.395 340.057L430.554 285.523L514.696 334.095Z" fill="#0B225C"/>
<path d="M706.848 276.156L706.689 330.705L595.121 395.529L595.28 340.995L706.848 276.156Z" fill="#0B225C"/>
<path d="M586.9 375.79L586.741 430.324L560.922 415.417L561.067 360.883L586.9 375.79Z" fill="#0B225C"/>
<path d="M621.112 355.902L620.953 410.436L586.74 430.322L586.899 375.788L621.112 355.902Z" fill="#0B225C"/>
<path d="M516.275 386.904L516.13 441.438L469.746 414.663L469.905 360.129L516.275 386.904Z" fill="#0B225C"/>
<path d="M561.067 360.883L560.922 415.417L516.115 441.439L516.274 386.905L561.067 360.883Z" fill="#0B225C"/>
<path d="M595.294 341.039L621.113 355.96L586.9 375.774L561.081 360.867L516.289 386.918L469.905 360.143L514.697 334.092L430.555 285.506L466.041 264.882L658.929 248.484L706.848 276.157L595.294 341.039ZM548.91 314.264L613.631 276.634L500.485 286.273L548.91 314.235" fill="#F22F81"/>
<path d="M531.37 329.273C534.44 334.735 538.163 339.804 542.456 344.368C543.657 345.815 552.876 342.24 550.937 341.242C548.997 340.243 542.977 331.834 539.952 326.233C537.417 319.524 535.262 312.677 533.497 305.725C531.601 298.865 529.966 288.777 528.577 284.016C527.187 279.254 524.351 277.488 521.514 276.779C518.2 276.012 516.058 276.924 516.651 280.933C517.722 287.996 523.222 315.364 531.37 329.215" fill="#D2854B"/>
<path d="M526.087 436.562C528.982 438.892 533.15 436.764 533.324 436.982C536.684 440.093 540.205 443.025 543.874 445.767C545.654 447.214 548.433 449.037 547.941 451.744C547.029 456.549 539.257 455.073 536.363 453.596C533.468 452.12 531.08 449.689 528.331 447.966C526.362 446.751 524.437 446.128 524.119 443.625C523.945 442.177 525.48 436.489 526.001 436.547" fill="black"/>
<path d="M524.25 442.612C524.626 444.986 526.536 445.637 528.49 446.853C531.283 448.589 533.744 451.093 536.652 452.569C539.561 454.046 546.045 455.29 547.941 451.846C546.913 456.492 539.258 455.03 536.45 453.568C533.642 452.106 531.167 449.66 528.418 447.938C526.449 446.722 524.525 446.086 524.221 443.596C524.179 443.265 524.179 442.929 524.221 442.598" fill="#BF4B4B"/>
<path d="M555.076 419.83C557.97 422.16 562.949 419.613 563.151 419.83C566.124 422.847 569.27 425.688 572.573 428.34C574.367 429.787 577.146 431.625 576.639 434.317C575.742 439.137 568.028 437.646 565.062 436.17C562.095 434.693 559.765 432.262 557.015 430.554C555.047 429.324 553.122 428.702 552.818 426.212C552.63 424.765 554.511 419.772 555.018 419.83" fill="black"/>
<path d="M552.962 425.561C553.339 427.935 555.249 428.586 557.188 429.802C559.996 431.539 562.456 434.042 565.365 435.519C568.274 436.995 574.758 438.225 576.654 434.795C575.626 439.441 568.043 437.979 565.163 436.517C562.283 435.056 559.88 432.595 557.13 430.887C555.162 429.672 553.223 429.035 552.919 426.545C552.879 426.214 552.879 425.879 552.919 425.547" fill="#BF4B4B"/>
<path d="M487.851 344.888C484.653 364.687 493.481 372.069 504.914 376.28C513.106 379.305 524.872 383.965 524.872 383.965C524.872 383.965 524.713 388.307 524.626 398.062C524.539 406.644 525.668 437.993 525.668 437.993C525.668 437.993 530.415 440.453 534.424 437.892C534.424 437.892 539.04 413.881 540.01 403.055C541.342 388.365 543.599 378.755 542.905 375.557C542.239 372.778 526.189 364.876 521.095 360.649L554.729 371.924C554.059 375.571 553.729 379.273 553.744 382.981C554.063 394.646 554.7 419.873 554.7 419.873C554.7 419.873 559.316 423.201 563.253 419.873C563.253 419.873 571.719 369.927 570.692 363.312C569.708 357.046 540.068 344.223 534.858 339.808C533.932 339.076 532.861 338.548 531.716 338.261C530.57 337.974 529.377 337.934 528.215 338.144L487.851 344.888Z" fill="#727272"/>
<path d="M568.506 353.138L545.9 340.112C545.702 339.998 545.477 339.938 545.249 339.938C545.02 339.938 544.795 339.998 544.597 340.112L504.914 362.979L528.157 376.396L568.506 353.138Z" fill="white"/>
<path d="M527.157 371.609L525.435 372.593C525.29 372.68 525.305 372.824 525.435 372.911L527.085 373.867C527.17 373.91 527.265 373.932 527.36 373.932C527.456 373.932 527.55 373.91 527.635 373.867L529.357 372.882C529.502 372.796 529.473 372.651 529.357 372.564L527.722 371.609C527.637 371.566 527.542 371.543 527.447 371.543C527.351 371.543 527.257 371.566 527.172 371.609" fill="#727272"/>
<path d="M529.59 370.19L527.868 371.189C527.723 371.276 527.752 371.42 527.868 371.507L529.517 372.462C529.6 372.506 529.692 372.528 529.785 372.528C529.878 372.528 529.97 372.506 530.053 372.462L531.775 371.464C531.92 371.464 531.905 371.247 531.775 371.16L530.125 370.205C530.04 370.163 529.946 370.141 529.85 370.141C529.755 370.141 529.661 370.163 529.575 370.205" fill="#727272"/>
<path d="M532.064 368.769L530.341 369.767C530.197 369.767 530.211 369.984 530.341 370.086L531.991 371.026C532.077 371.069 532.171 371.091 532.266 371.091C532.362 371.091 532.456 371.069 532.541 371.026L534.263 370.028C534.408 369.941 534.379 369.811 534.263 369.709L532.628 368.769C532.544 368.723 532.449 368.699 532.353 368.699C532.257 368.699 532.163 368.723 532.078 368.769" fill="#727272"/>
<path d="M534.467 367.381L532.744 368.38C532.6 368.452 532.629 368.597 532.744 368.684L534.394 369.639C534.478 369.678 534.57 369.698 534.662 369.698C534.755 369.698 534.846 369.678 534.93 369.639L536.652 368.64C536.797 368.553 536.782 368.409 536.652 368.322L535.002 367.367C534.917 367.323 534.823 367.301 534.727 367.301C534.632 367.301 534.537 367.323 534.452 367.367" fill="#727272"/>
<path d="M536.911 365.976L535.189 366.96C535.044 367.047 535.059 367.192 535.189 367.278L536.839 368.234C536.924 368.277 537.018 368.299 537.114 368.299C537.209 368.299 537.304 368.277 537.389 368.234L539.111 367.25C539.256 367.163 539.227 367.018 539.111 366.931L537.476 365.976C537.391 365.933 537.296 365.91 537.201 365.91C537.105 365.91 537.011 365.933 536.926 365.976" fill="#727272"/>
<path d="M539.344 364.56L537.621 365.559C537.477 365.646 537.506 365.776 537.621 365.877L539.271 366.818C539.353 366.864 539.445 366.887 539.539 366.887C539.633 366.887 539.725 366.864 539.807 366.818L541.529 365.819C541.674 365.747 541.659 365.602 541.529 365.501L539.879 364.56C539.794 364.518 539.699 364.496 539.604 364.496C539.509 364.496 539.415 364.518 539.329 364.56" fill="#727272"/>
<path d="M541.79 363.155L540.068 364.154C539.923 364.154 539.938 364.371 540.068 364.472L541.718 365.413C541.803 365.455 541.897 365.477 541.993 365.477C542.088 365.477 542.182 365.455 542.268 365.413L543.99 364.415C544.135 364.328 544.106 364.197 543.99 364.096L542.355 363.155C542.27 363.11 542.176 363.086 542.08 363.086C541.984 363.086 541.889 363.11 541.805 363.155" fill="#727272"/>
<path d="M544.22 361.75L542.542 362.749C542.411 362.836 542.426 362.981 542.542 363.068L544.191 364.023C544.277 364.066 544.371 364.089 544.466 364.089C544.562 364.089 544.656 364.066 544.741 364.023L546.464 363.039C546.594 362.952 546.579 362.807 546.464 362.72L544.814 361.765C544.729 361.722 544.634 361.699 544.539 361.699C544.443 361.699 544.349 361.722 544.264 361.765" fill="#727272"/>
<path d="M546.667 360.331L544.945 361.329C544.8 361.416 544.815 361.561 544.945 361.648L546.595 362.603C546.68 362.646 546.774 362.669 546.87 362.669C546.965 362.669 547.06 362.646 547.145 362.603L548.867 361.604C549.012 361.532 548.983 361.387 548.867 361.301L547.232 360.345C547.146 360.303 547.052 360.281 546.957 360.281C546.861 360.281 546.767 360.303 546.682 360.345" fill="#727272"/>
<path d="M549.098 358.929L547.376 359.927C547.245 360 547.26 360.145 547.376 360.246L549.025 361.187C549.111 361.229 549.205 361.251 549.3 361.251C549.396 361.251 549.49 361.229 549.575 361.187L551.298 360.188C551.428 360.116 551.413 359.971 551.298 359.87L549.648 358.929C549.563 358.883 549.469 358.859 549.373 358.859C549.277 358.859 549.182 358.883 549.098 358.929" fill="#727272"/>
<path d="M551.544 357.526L549.822 358.51C549.677 358.597 549.692 358.741 549.822 358.828L551.472 359.783C551.558 359.823 551.652 359.843 551.747 359.843C551.842 359.843 551.935 359.823 552.022 359.783L553.744 358.785C553.889 358.698 553.86 358.553 553.744 358.466L552.109 357.511C552.023 357.468 551.929 357.445 551.834 357.445C551.738 357.445 551.644 357.468 551.559 357.511" fill="#727272"/>
<path d="M553.975 356.107L552.252 357.106C552.122 357.193 552.137 357.338 552.252 357.425L553.902 358.38C553.988 358.423 554.082 358.445 554.177 358.445C554.273 358.445 554.367 358.423 554.452 358.38L556.175 357.396C556.305 357.309 556.29 357.164 556.175 357.077L554.525 356.122C554.438 356.083 554.345 356.062 554.25 356.062C554.155 356.062 554.061 356.083 553.975 356.122" fill="#727272"/>
<path d="M556.421 354.701L554.699 355.699C554.554 355.786 554.569 355.916 554.699 356.018L556.349 356.959C556.433 357.004 556.528 357.028 556.624 357.028C556.72 357.028 556.814 357.004 556.899 356.959L558.621 355.96C558.766 355.888 558.737 355.743 558.621 355.641L556.986 354.701C556.9 354.659 556.806 354.637 556.711 354.637C556.615 354.637 556.521 354.659 556.436 354.701" fill="#727272"/>
<path d="M560.024 352.62L557.129 354.299C556.985 354.299 557.013 354.516 557.129 354.618L558.779 355.558C558.862 355.6 558.954 355.622 559.047 355.622C559.14 355.622 559.232 355.6 559.315 355.558L562.209 353.879C562.339 353.807 562.325 353.662 562.209 353.561L560.559 352.62C560.475 352.575 560.38 352.551 560.284 352.551C560.188 352.551 560.094 352.575 560.009 352.62" fill="#727272"/>
<path d="M528.402 368.148L526.68 369.146C526.55 369.219 526.564 369.363 526.68 369.465L528.33 370.405C528.416 370.448 528.51 370.469 528.605 370.469C528.7 370.469 528.794 370.448 528.88 370.405L530.602 369.407C530.732 369.32 530.718 369.19 530.602 369.088L528.952 368.148C528.868 368.102 528.773 368.078 528.677 368.078C528.581 368.078 528.487 368.102 528.402 368.148Z" fill="#727272"/>
<path d="M530.848 366.745L529.125 367.73C528.981 367.816 529.01 367.961 529.125 368.048L530.761 369.003C530.846 369.046 530.94 369.069 531.036 369.069C531.131 369.069 531.225 369.046 531.311 369.003L533.033 368.019C533.178 367.932 533.163 367.788 533.033 367.701L531.383 366.745C531.298 366.702 531.204 366.68 531.108 366.68C531.012 366.68 530.918 366.702 530.833 366.745" fill="#727272"/>
<path d="M533.294 365.324L531.572 366.323C531.427 366.323 531.442 366.54 531.572 366.641L533.207 367.582C533.292 367.628 533.386 367.651 533.482 367.651C533.578 367.651 533.673 367.628 533.757 367.582L535.479 366.583C535.624 366.511 535.61 366.366 535.479 366.265L533.859 365.353C533.773 365.311 533.679 365.289 533.584 365.289C533.488 365.289 533.394 365.311 533.309 365.353" fill="#727272"/>
<path d="M535.739 363.921L534.017 364.905C533.873 364.992 533.887 365.137 534.017 365.224L535.667 366.179C535.752 366.222 535.847 366.245 535.942 366.245C536.038 366.245 536.132 366.222 536.217 366.179L537.939 365.195C538.084 365.108 538.055 364.963 537.939 364.876L536.304 363.921C536.219 363.878 536.124 363.855 536.029 363.855C535.933 363.855 535.839 363.878 535.754 363.921" fill="#727272"/>
<path d="M538.201 362.519L536.479 363.517C536.334 363.59 536.363 363.734 536.479 363.836L538.114 364.776C538.2 364.819 538.294 364.841 538.389 364.841C538.485 364.841 538.579 364.819 538.664 364.776L540.386 363.778C540.531 363.691 540.517 363.561 540.386 363.459L538.737 362.519C538.652 362.473 538.558 362.449 538.462 362.449C538.366 362.449 538.271 362.473 538.187 362.519" fill="#727272"/>
<path d="M540.603 361.113L538.881 362.097C538.736 362.184 538.765 362.328 538.881 362.415L540.517 363.37C540.602 363.414 540.696 363.436 540.792 363.436C540.887 363.436 540.981 363.414 541.067 363.37L542.789 362.386C542.933 362.299 542.919 362.155 542.789 362.068L541.139 361.113C541.054 361.069 540.959 361.047 540.864 361.047C540.768 361.047 540.674 361.069 540.589 361.113" fill="#727272"/>
<path d="M543.048 359.695L541.326 360.693C541.181 360.765 541.196 360.91 541.326 361.012L542.976 361.952C543.061 361.994 543.155 362.016 543.251 362.016C543.346 362.016 543.44 361.994 543.526 361.952L545.248 360.954C545.393 360.954 545.364 360.737 545.248 360.635L543.612 359.695C543.528 359.649 543.433 359.625 543.337 359.625C543.241 359.625 543.147 359.649 543.063 359.695" fill="#727272"/>
<path d="M545.437 358.292L543.715 359.276C543.57 359.363 543.584 359.508 543.715 359.595L545.364 360.55C545.45 360.593 545.544 360.616 545.639 360.616C545.735 360.616 545.829 360.593 545.914 360.55L547.637 359.566C547.781 359.479 547.752 359.334 547.637 359.248L546.001 358.292C545.916 358.249 545.822 358.227 545.726 358.227C545.631 358.227 545.536 358.249 545.451 358.292" fill="#727272"/>
<path d="M547.926 356.875L546.204 357.874C546.073 357.96 546.088 358.091 546.204 358.192L547.854 359.133C547.938 359.178 548.032 359.202 548.128 359.202C548.224 359.202 548.319 359.178 548.403 359.133L550.126 358.134C550.256 358.062 550.241 357.917 550.126 357.816L548.476 356.962C548.39 356.92 548.296 356.898 548.201 356.898C548.106 356.898 548.011 356.92 547.926 356.962" fill="#727272"/>
<path d="M550.371 355.515L548.649 356.499C548.504 356.586 548.533 356.731 548.649 356.818L550.299 357.773C550.381 357.816 550.473 357.838 550.566 357.838C550.66 357.838 550.751 357.816 550.834 357.773L552.556 356.789C552.701 356.702 552.687 356.557 552.556 356.47L550.906 355.515C550.821 355.472 550.727 355.449 550.631 355.449C550.536 355.449 550.442 355.472 550.357 355.515" fill="#727272"/>
<path d="M552.818 354.065L551.095 355.064C550.951 355.151 550.965 355.281 551.095 355.382L552.731 356.337C552.816 356.381 552.91 356.403 553.006 356.403C553.101 356.403 553.196 356.381 553.281 356.337L555.003 355.339C555.148 355.266 555.133 355.122 555.003 355.02L553.368 354.08C553.282 354.038 553.188 354.016 553.093 354.016C552.997 354.016 552.903 354.038 552.818 354.08" fill="#727272"/>
<path d="M555.263 352.619L553.541 353.618C553.396 353.69 553.41 353.835 553.541 353.922L555.176 354.877C555.262 354.916 555.356 354.936 555.451 354.936C555.546 354.936 555.64 354.916 555.726 354.877L557.448 353.878C557.593 353.792 557.578 353.647 557.448 353.56L555.813 352.605C555.728 352.562 555.633 352.539 555.538 352.539C555.442 352.539 555.348 352.562 555.263 352.605" fill="#727272"/>
<path d="M525.971 369.566L523.077 371.23C522.946 371.317 522.961 371.462 523.077 371.548L524.727 372.504C524.812 372.547 524.906 372.569 525.002 372.569C525.097 372.569 525.191 372.547 525.277 372.504L528.171 370.839C528.301 370.752 528.287 370.608 528.171 370.521L526.521 369.566C526.438 369.523 526.347 369.5 526.253 369.5C526.16 369.5 526.068 369.523 525.986 369.566" fill="#727272"/>
<path d="M559.91 352.533L558.187 353.531C558.108 353.567 558.021 353.585 557.934 353.585C557.847 353.585 557.761 353.567 557.681 353.531L555.944 352.518C555.906 352.518 555.869 352.503 555.842 352.476C555.815 352.449 555.8 352.412 555.8 352.374C555.8 352.335 555.815 352.298 555.842 352.271C555.869 352.244 555.906 352.229 555.944 352.229L556.075 352.142C556.205 352.07 556.205 351.954 556.075 351.867L554.236 350.81C554.198 350.81 554.161 350.795 554.134 350.768C554.107 350.741 554.092 350.704 554.092 350.666C554.092 350.627 554.107 350.591 554.134 350.563C554.161 350.536 554.198 350.521 554.236 350.521L555.336 349.884C555.415 349.845 555.502 349.824 555.59 349.824C555.678 349.824 555.764 349.845 555.843 349.884L557.565 350.883L557.912 351.085L558.173 351.23L558.434 351.375L559.881 352.229C560.025 352.316 560.025 352.446 559.881 352.533" fill="#727272"/>
<path d="M517.707 366.136L515.985 367.135C515.84 367.207 515.869 367.352 515.985 367.453L517.62 368.394C517.706 368.436 517.8 368.458 517.895 368.458C517.99 368.458 518.085 368.436 518.17 368.394L519.892 367.395C520.037 367.308 520.023 367.178 519.892 367.077L518.242 366.136C518.158 366.09 518.063 366.066 517.967 366.066C517.871 366.066 517.777 366.09 517.692 366.136" fill="#727272"/>
<path d="M520.139 364.734L518.416 365.732C518.272 365.805 518.301 365.949 518.416 366.051L520.052 366.991C520.137 367.033 520.231 367.055 520.327 367.055C520.422 367.055 520.516 367.033 520.602 366.991L522.324 365.993C522.469 365.92 522.454 365.776 522.324 365.674L520.674 364.734C520.59 364.688 520.495 364.664 520.399 364.664C520.303 364.664 520.209 364.688 520.124 364.734" fill="#727272"/>
<path d="M522.57 363.327L520.848 364.326C520.703 364.398 520.732 364.543 520.848 364.644L522.498 365.585C522.581 365.627 522.673 365.649 522.766 365.649C522.859 365.649 522.95 365.627 523.033 365.585L524.756 364.586C524.9 364.514 524.886 364.369 524.756 364.268L523.106 363.327C523.021 363.282 522.927 363.258 522.831 363.258C522.735 363.258 522.64 363.282 522.556 363.327" fill="#727272"/>
<path d="M543.279 351.374L541.557 352.373C541.412 352.445 541.441 352.59 541.557 352.677L543.192 353.632C543.278 353.674 543.372 353.696 543.467 353.696C543.563 353.696 543.657 353.674 543.742 353.632L545.464 352.633C545.609 352.547 545.595 352.416 545.464 352.315L543.815 351.374C543.73 351.329 543.636 351.305 543.54 351.305C543.444 351.305 543.349 351.329 543.265 351.374" fill="#727272"/>
<path d="M545.711 349.971L543.989 350.969C543.844 351.042 543.873 351.187 543.989 351.273L545.624 352.229C545.71 352.271 545.804 352.293 545.899 352.293C545.994 352.293 546.088 352.271 546.174 352.229L547.896 351.23C548.041 351.143 548.026 350.998 547.896 350.912L546.246 349.956C546.161 349.913 546.067 349.891 545.971 349.891C545.876 349.891 545.782 349.913 545.696 349.956" fill="#727272"/>
<path d="M548.142 348.566L546.42 349.564C546.276 349.637 546.304 349.781 546.42 349.883L548.056 350.823C548.141 350.865 548.235 350.887 548.331 350.887C548.426 350.887 548.52 350.865 548.606 350.823L550.328 349.825C550.473 349.738 550.458 349.608 550.328 349.506L548.678 348.566C548.593 348.52 548.499 348.496 548.403 348.496C548.307 348.496 548.212 348.52 548.128 348.566" fill="#727272"/>
<path d="M550.574 347.163L548.852 348.162C548.707 348.234 548.736 348.379 548.852 348.466L550.487 349.421C550.573 349.463 550.667 349.485 550.762 349.485C550.858 349.485 550.952 349.463 551.037 349.421L552.759 348.422C552.904 348.336 552.89 348.191 552.759 348.104L551.11 347.163C551.025 347.118 550.931 347.094 550.835 347.094C550.739 347.094 550.644 347.118 550.56 347.163" fill="#727272"/>
<path d="M525.624 361.562L523.28 362.922C523.135 362.994 523.164 363.139 523.28 363.241L524.915 364.181C525.001 364.223 525.095 364.245 525.19 364.245C525.285 364.245 525.379 364.223 525.465 364.181L527.824 362.821C527.954 362.734 527.94 362.604 527.824 362.502L526.174 361.562C526.09 361.516 525.995 361.492 525.899 361.492C525.803 361.492 525.709 361.516 525.624 361.562" fill="#727272"/>
<path d="M540.848 352.777L538.504 354.137C538.359 354.209 538.373 354.354 538.504 354.455L540.153 355.396C540.239 355.438 540.333 355.46 540.428 355.46C540.524 355.46 540.618 355.438 540.703 355.396L543.048 354.036C543.193 353.949 543.178 353.819 543.048 353.717L541.398 352.777C541.314 352.731 541.219 352.707 541.123 352.707C541.027 352.707 540.933 352.731 540.848 352.777" fill="#727272"/>
<path d="M537.795 354.542L526.333 361.156C526.202 361.229 526.217 361.373 526.333 361.475L527.982 362.415C528.068 362.458 528.162 362.479 528.257 362.479C528.353 362.479 528.447 362.458 528.532 362.415L539.98 355.801C540.125 355.714 540.096 355.584 539.98 355.483L538.345 354.542C538.26 354.497 538.166 354.473 538.07 354.473C537.974 354.473 537.879 354.497 537.795 354.542" fill="#727272"/>
<path d="M526.708 366.396L524.986 367.395C524.841 367.482 524.856 367.612 524.986 367.713L526.621 368.654C526.706 368.699 526.8 368.723 526.896 368.723C526.992 368.723 527.087 368.699 527.171 368.654L528.894 367.655C529.038 367.583 529.024 367.438 528.894 367.337L527.258 366.396C527.173 366.354 527.079 366.332 526.983 366.332C526.888 366.332 526.794 366.354 526.708 366.396" fill="#727272"/>
<path d="M529.141 364.991L527.419 365.99C527.288 366.062 527.303 366.207 527.419 366.308L529.068 367.249C529.151 367.291 529.243 367.313 529.336 367.313C529.429 367.313 529.521 367.291 529.604 367.249L531.326 366.251C531.471 366.178 531.456 366.033 531.326 365.932L529.676 364.991C529.592 364.946 529.497 364.922 529.401 364.922C529.305 364.922 529.211 364.946 529.126 364.991" fill="#727272"/>
<path d="M531.573 363.589L529.865 364.588C529.72 364.66 529.735 364.805 529.865 364.906L531.515 365.847C531.6 365.889 531.694 365.911 531.79 365.911C531.885 365.911 531.979 365.889 532.065 365.847L533.787 364.848C533.917 364.761 533.903 364.631 533.787 364.53L532.137 363.589C532.053 363.543 531.958 363.52 531.862 363.52C531.766 363.52 531.672 363.543 531.587 363.589" fill="#727272"/>
<path d="M534.017 362.187L532.295 363.171C532.15 363.258 532.164 363.403 532.295 363.489L533.93 364.445C534.015 364.488 534.109 364.51 534.205 364.51C534.3 364.51 534.395 364.488 534.48 364.445L536.202 363.46C536.347 363.374 536.332 363.229 536.202 363.142L534.567 362.187C534.482 362.144 534.387 362.121 534.292 362.121C534.196 362.121 534.102 362.144 534.017 362.187" fill="#727272"/>
<path d="M536.449 360.781L534.727 361.765C534.582 361.852 534.611 361.996 534.727 362.083L536.362 363.038C536.448 363.082 536.542 363.104 536.637 363.104C536.733 363.104 536.827 363.082 536.912 363.038L538.634 362.054C538.779 361.967 538.765 361.823 538.634 361.736L536.985 360.781C536.899 360.737 536.805 360.715 536.71 360.715C536.614 360.715 536.52 360.737 536.435 360.781" fill="#727272"/>
<path d="M538.881 359.361L537.159 360.36C537.028 360.447 537.043 360.592 537.159 360.678L538.809 361.634C538.894 361.677 538.988 361.699 539.084 361.699C539.179 361.699 539.273 361.677 539.359 361.634L541.081 360.649C541.211 360.563 541.197 360.418 541.081 360.331L539.431 359.376C539.345 359.337 539.251 359.316 539.156 359.316C539.061 359.316 538.967 359.337 538.881 359.376" fill="#727272"/>
<path d="M541.325 357.959L539.603 358.957C539.458 359.044 539.473 359.174 539.603 359.276L541.239 360.216C541.323 360.262 541.418 360.286 541.514 360.286C541.61 360.286 541.704 360.262 541.789 360.216L543.511 359.218C543.655 359.145 543.641 359.001 543.511 358.899L541.875 357.959C541.79 357.916 541.696 357.895 541.6 357.895C541.505 357.895 541.411 357.916 541.325 357.959" fill="#727272"/>
<path d="M543.758 356.554L542.035 357.552C541.891 357.552 541.92 357.77 542.035 357.871L543.671 358.812C543.756 358.854 543.851 358.876 543.946 358.876C544.041 358.876 544.135 358.854 544.221 358.812L545.943 357.813C546.088 357.726 546.073 357.596 545.943 357.495L544.293 356.554C544.209 356.508 544.114 356.484 544.018 356.484C543.922 356.484 543.828 356.508 543.743 356.554" fill="#727272"/>
<path d="M546.19 355.151L544.467 356.149C544.337 356.222 544.352 356.366 544.467 356.453L546.117 357.408C546.203 357.45 546.297 357.472 546.392 357.472C546.488 357.472 546.582 357.45 546.667 357.408L548.389 356.41C548.52 356.323 548.505 356.193 548.389 356.091L546.74 355.136C546.654 355.093 546.56 355.07 546.465 355.07C546.369 355.07 546.275 355.093 546.19 355.136" fill="#727272"/>
<path d="M548.634 353.745L546.912 354.73C546.767 354.816 546.782 354.961 546.912 355.048L548.562 356.003C548.647 356.046 548.741 356.069 548.837 356.069C548.932 356.069 549.026 356.046 549.112 356.003L550.834 355.019C550.979 354.932 550.95 354.788 550.834 354.701L549.198 353.745C549.113 353.702 549.019 353.68 548.923 353.68C548.828 353.68 548.734 353.702 548.648 353.745" fill="#727272"/>
<path d="M551.066 352.33L549.344 353.329C549.199 353.416 549.228 353.56 549.344 353.647L550.979 354.602C551.065 354.646 551.159 354.668 551.254 354.668C551.35 354.668 551.444 354.646 551.529 354.602L553.252 353.618C553.396 353.531 553.382 353.387 553.252 353.3L551.602 352.345C551.515 352.305 551.422 352.285 551.327 352.285C551.232 352.285 551.138 352.305 551.052 352.345" fill="#727272"/>
<path d="M553.498 350.925L551.776 351.923C551.646 352.01 551.66 352.155 551.776 352.242L553.426 353.197C553.511 353.24 553.605 353.263 553.701 353.263C553.796 353.263 553.891 353.24 553.976 353.197L555.698 352.198C555.828 352.126 555.814 351.981 555.698 351.894L554.048 350.939C553.963 350.897 553.868 350.875 553.773 350.875C553.678 350.875 553.584 350.897 553.498 350.939" fill="#727272"/>
<path d="M524.278 367.815L520.704 369.87C520.573 369.942 520.588 370.087 520.704 370.188L522.354 371.129C522.439 371.171 522.533 371.193 522.628 371.193C522.724 371.193 522.818 371.171 522.903 371.129L526.464 369.074C526.594 368.987 526.579 368.842 526.464 368.755L524.828 367.8C524.743 367.757 524.649 367.734 524.553 367.734C524.458 367.734 524.364 367.757 524.278 367.8" fill="#727272"/>
<path d="M523.134 365.732L521.412 366.731C521.267 366.817 521.282 366.948 521.412 367.049L523.047 367.99C523.132 368.035 523.226 368.059 523.322 368.059C523.418 368.059 523.513 368.035 523.597 367.99L525.319 366.991C525.464 366.919 525.45 366.774 525.319 366.673L523.684 365.732C523.598 365.69 523.504 365.668 523.409 365.668C523.314 365.668 523.22 365.69 523.134 365.732" fill="#727272"/>
<path d="M525.567 364.327L523.844 365.326C523.714 365.398 523.729 365.543 523.844 365.644L525.494 366.585C525.58 366.627 525.674 366.649 525.769 366.649C525.865 366.649 525.959 366.627 526.044 366.585L527.752 365.586C527.897 365.5 527.882 365.369 527.752 365.268L526.102 364.327C526.018 364.282 525.923 364.258 525.827 364.258C525.731 364.258 525.637 364.282 525.552 364.327" fill="#727272"/>
<path d="M528.07 362.925L526.347 363.924C526.203 363.996 526.217 364.141 526.347 364.242L527.997 365.183C528.083 365.225 528.177 365.247 528.272 365.247C528.368 365.247 528.462 365.225 528.547 365.183L530.269 364.184C530.414 364.097 530.385 363.967 530.269 363.866L528.634 362.925C528.55 362.879 528.455 362.855 528.359 362.855C528.263 362.855 528.169 362.879 528.084 362.925" fill="#727272"/>
<path d="M530.443 361.519L528.72 362.503C528.576 362.59 528.59 362.735 528.72 362.821L530.356 363.777C530.441 363.82 530.535 363.842 530.631 363.842C530.726 363.842 530.82 363.82 530.906 363.777L532.628 362.793C532.773 362.706 532.758 362.561 532.628 362.474L530.993 361.519C530.907 361.476 530.813 361.453 530.718 361.453C530.622 361.453 530.528 361.476 530.443 361.519" fill="#727272"/>
<path d="M532.875 360.117L531.153 361.101C531.008 361.188 531.037 361.332 531.153 361.419L532.788 362.374C532.873 362.418 532.967 362.44 533.063 362.44C533.159 362.44 533.253 362.418 533.338 362.374L535.06 361.39C535.205 361.303 535.19 361.159 535.06 361.072L533.41 360.117C533.325 360.073 533.231 360.051 533.135 360.051C533.04 360.051 532.946 360.073 532.86 360.117" fill="#727272"/>
<path d="M535.307 358.697L533.585 359.696C533.454 359.783 533.469 359.928 533.585 360.014L535.234 360.97C535.32 361.013 535.414 361.035 535.509 361.035C535.605 361.035 535.699 361.013 535.784 360.97L537.507 359.985C537.637 359.899 537.622 359.754 537.507 359.667L535.857 358.712C535.77 358.673 535.677 358.652 535.582 358.652C535.487 358.652 535.393 358.673 535.307 358.712" fill="#727272"/>
<path d="M537.751 357.295L536.029 358.293C535.884 358.38 535.899 358.51 536.029 358.612L537.679 359.552C537.763 359.598 537.858 359.622 537.954 359.622C538.05 359.622 538.144 359.598 538.229 359.552L539.951 358.554C540.096 358.481 540.067 358.337 539.951 358.235L538.316 357.295C538.23 357.252 538.136 357.23 538.041 357.23C537.945 357.23 537.851 357.252 537.766 357.295" fill="#727272"/>
<path d="M540.183 355.89L538.461 356.888C538.317 356.961 538.345 357.106 538.461 357.207L540.097 358.148C540.182 358.19 540.276 358.212 540.372 358.212C540.467 358.212 540.561 358.19 540.647 358.148L542.369 357.149C542.514 357.062 542.499 356.932 542.369 356.831L540.719 355.89C540.634 355.844 540.54 355.82 540.444 355.82C540.348 355.82 540.253 355.844 540.169 355.89" fill="#727272"/>
<path d="M542.615 354.484L540.893 355.482C540.763 355.482 540.777 355.699 540.893 355.801L542.543 356.741C542.629 356.783 542.723 356.805 542.818 356.805C542.913 356.805 543.007 356.783 543.093 356.741L544.801 355.743C544.945 355.656 544.931 355.526 544.801 355.424L543.151 354.484C543.066 354.438 542.972 354.414 542.876 354.414C542.78 354.414 542.685 354.438 542.601 354.484" fill="#727272"/>
<path d="M545.06 353.08L543.338 354.064C543.193 354.151 543.207 354.296 543.338 354.383L544.987 355.338C545.074 355.377 545.168 355.397 545.262 355.397C545.357 355.397 545.451 355.377 545.537 355.338L547.26 354.339C547.404 354.253 547.375 354.108 547.26 354.021L545.624 353.066C545.539 353.023 545.445 353 545.349 353C545.254 353 545.159 353.023 545.074 353.066" fill="#727272"/>
<path d="M547.491 351.679L545.769 352.663C545.624 352.75 545.639 352.895 545.769 352.982L547.405 353.937C547.49 353.98 547.584 354.003 547.68 354.003C547.775 354.003 547.869 353.98 547.955 353.937L549.677 352.953C549.821 352.866 549.807 352.721 549.677 352.634L548.041 351.679C547.956 351.636 547.862 351.613 547.766 351.613C547.671 351.613 547.577 351.636 547.491 351.679" fill="#727272"/>
<path d="M552.934 348.522L548.202 351.258C548.057 351.344 548.086 351.489 548.202 351.576L549.837 352.531C549.922 352.574 550.016 352.597 550.112 352.597C550.207 352.597 550.302 352.574 550.387 352.531L555.134 349.796C555.264 349.723 555.25 349.579 555.134 349.477L553.484 348.537C553.398 348.495 553.304 348.473 553.209 348.473C553.114 348.473 553.02 348.495 552.934 348.537" fill="#727272"/>
<path d="M520.703 367.092L518.344 368.452C518.214 368.539 518.229 368.684 518.344 368.771L519.994 369.726C520.079 369.769 520.174 369.792 520.269 369.792C520.365 369.792 520.459 369.769 520.544 369.726L522.889 368.365C523.033 368.293 523.004 368.148 522.889 368.062L521.253 367.106C521.167 367.067 521.073 367.047 520.978 367.047C520.883 367.047 520.79 367.067 520.703 367.106" fill="#727272"/>
<path d="M562.485 354.064L527.896 374.037C527.751 374.109 527.766 374.254 527.896 374.356L528.721 374.819C528.807 374.861 528.901 374.883 528.996 374.883C529.091 374.883 529.185 374.861 529.271 374.819L563.86 354.846C564.005 354.759 563.976 354.614 563.86 354.528L563.035 354.05C562.953 354.007 562.861 353.984 562.767 353.984C562.674 353.984 562.582 354.007 562.5 354.05" fill="#727272"/>
<path d="M522.006 354.919L522.223 355.049L528.2 358.494L538.823 352.357L539.04 352.242L532.846 348.652L522.006 354.919Z" fill="#BFBFBF"/>
<path d="M522.223 355.051L528.2 358.495L538.823 352.359L532.845 348.914L522.223 355.051Z" fill="#D4DCEE"/>
<path d="M504.914 362.983V363.504C504.914 363.887 505.014 364.263 505.205 364.596C505.395 364.929 505.669 365.206 505.999 365.4L527.071 377.557C527.4 377.752 527.775 377.852 528.157 377.846C528.543 377.85 528.923 377.75 529.257 377.557L567.406 355.515C567.74 355.323 568.018 355.047 568.211 354.715C568.404 354.382 568.506 354.004 568.506 353.619V353.098L528.2 376.356L504.914 362.983Z" fill="#D4DCEE"/>
<path d="M528.822 376.731C529.184 376.869 529.571 376.924 529.956 376.894C530.341 376.864 530.715 376.749 531.051 376.558L568.998 354.646C569.326 354.453 569.608 354.192 569.826 353.879C570.043 353.567 570.19 353.211 570.257 352.837L574.381 328.016C574.381 327.871 574.381 327.726 574.381 327.596C574.383 327.254 574.316 326.915 574.184 326.599C574.052 326.284 573.859 325.997 573.614 325.758L534.235 348.567C533.993 348.711 533.784 348.906 533.624 349.139C533.464 349.371 533.357 349.635 533.309 349.913L528.822 376.731Z" fill="white"/>
<path d="M528.199 376.397L528.46 376.556L528.822 376.73L533.308 349.912C533.356 349.634 533.464 349.37 533.624 349.137C533.784 348.905 533.992 348.71 534.234 348.566L573.672 325.8C573.518 325.641 573.342 325.505 573.151 325.395L533.626 348.276C533.383 348.416 533.174 348.608 533.014 348.838C532.854 349.068 532.746 349.331 532.7 349.608L528.199 376.397Z" fill="#D4DCEE"/>
<path d="M499.558 270.369C499.558 270.369 500.036 279.791 499.833 280.63C499.63 281.47 495.491 284.219 494.305 285.218C493.118 286.217 500.817 293.815 504.58 295.537C508.343 297.259 520.21 292.729 520.5 286.853C520.789 280.977 518.459 276.115 516.636 275.854C514.812 275.594 499.63 270.34 499.63 270.34" fill="#D2854B"/>
<path d="M498.502 282.252C498.502 282.252 505.347 292.456 514.884 293.411C517.895 290.516 518.17 279.879 514.002 276.507C514.002 276.507 517.837 273.424 520.456 274.017C523.269 275.727 525.363 278.402 526.347 281.543C528.782 288.569 529.925 295.978 529.719 303.412C529.559 313.413 529.719 338.697 529.719 338.697C529.719 338.697 528.271 348.365 519.66 353.17C512.781 357.05 504.684 358.167 497.011 356.296C492.177 355.167 490.383 352.461 488.718 348.944C489.152 341.939 491.917 327.509 490.759 318.681C489.601 309.852 487.72 303.296 487.242 296.161C486.764 289.026 488.183 289.17 491.757 286.638C493.901 285.035 496.155 283.584 498.502 282.296" fill="white"/>
<path d="M509.473 363.501C507.753 362.369 505.965 361.345 504.119 360.432C502.386 359.893 500.811 358.939 499.531 357.654C497.852 356.018 495.102 349.795 493.148 343.745C491.184 336.909 490.4 329.787 490.833 322.687C491.672 314.191 494.726 302.295 495.507 297.403C496.289 292.511 494.697 290.572 492.425 288.719C489.762 286.606 486.071 287.547 484.103 294.392C481.588 303.88 480.132 313.617 479.761 323.425C479.685 330.709 480.81 337.956 483.09 344.874C485.121 350.806 487.867 356.468 491.267 361.735C492.208 363.313 492.512 364.716 493.944 367.944C495.33 371.188 497.48 374.048 500.211 376.28C502.599 378.003 503.742 378.234 504.307 377.901C504.871 377.568 504.857 376.729 503.858 375.817C502.13 374.499 500.659 372.875 499.516 371.027C499.516 371.027 501.6 373.125 502.975 374.283C504.194 375.304 505.542 376.161 506.984 376.83C508.431 377.438 510.327 376.251 509.343 375.311C508.359 374.37 507.331 373.863 505.32 372.17C504.235 371.262 503.263 370.227 502.425 369.087C503.828 370.168 505.313 371.136 506.868 371.982C508.087 372.726 509.493 373.107 510.921 373.082C511.673 373.082 512.57 372.011 511.181 371.012C509.272 370.023 507.489 368.808 505.87 367.394C504.336 365.86 503.467 364.499 503.901 364.499C504.336 364.499 505.175 365.44 506.97 365.947C508.764 366.453 510.689 365.947 510.921 365.006C511.152 364.065 511.08 364.21 509.401 363.37" fill="#D2854B"/>
<path d="M520.833 256.317C519.704 248.993 514.436 243.45 506.896 243.87C504.986 243.974 503.116 244.453 501.391 245.28C499.667 246.108 498.123 247.267 496.847 248.692C495.571 250.117 494.589 251.78 493.957 253.585C493.324 255.39 493.054 257.302 493.162 259.211C493.291 261.431 493.931 263.591 495.03 265.524C496.129 267.456 497.659 269.11 499.501 270.355C499.768 271.466 500.156 272.543 500.658 273.568C503.336 276.68 511.411 278.62 513.684 278.287C516.665 277.852 518.271 276.608 519.69 273.351C522.193 267.562 521.412 259.935 520.789 256.317" fill="#D2854B"/>
<path d="M499.558 270.353L500.253 263.97C500.253 263.97 495.028 250.467 507.359 253.058C515.492 254.78 517.489 255.518 520.008 250.062C522.526 244.606 513.756 239.685 503.379 241.045C499.822 241.424 496.534 243.118 494.162 245.796C491.79 248.474 490.504 251.941 490.556 255.518C490.831 259.542 491.902 267.661 499.558 270.281" fill="black"/>
<path d="M478.459 307.015C478.459 307.015 485.189 313.702 493.148 311.777C494.277 311.01 497.013 295.365 497.013 295.365C497.013 295.365 497.013 286.681 490.37 286.927C483.727 287.173 478.459 307.015 478.459 307.015" fill="#F5F5F5"/>
<path d="M529.256 294.032C529.256 294.032 532.773 293.858 534.22 291.817C533.96 288.315 529.473 275.014 520.457 274.016C522.909 275.738 524.853 278.087 526.087 280.818C527.486 285.133 528.546 289.551 529.256 294.032" fill="#F5F5F5"/>
<path d="M90.8293 5.74432C92.6095 2.84973 106.17 1.01167 110.642 12.5032C112.335 16.8451 112.089 28.0181 113.537 35.023C114.984 42.0279 118.284 45.9935 119.485 51.6814C120.686 57.3693 118.732 66.878 105.012 68.5713C91.2925 70.2646 80.7855 65.4451 77.5147 61.0743C74.244 56.7035 74.215 47.4408 77.5147 42.4477C80.8144 37.4545 83.4339 33.4166 83.3037 26.9182L90.8293 5.74432Z" fill="black"/>
<path d="M99.787 3.82178C99.787 3.82178 89.5695 0.927196 83.3753 6.41244C81.3338 8.29555 79.849 10.7036 79.0833 13.3734C78.3176 16.0432 78.3004 18.8722 79.0336 21.5511C79.8585 24.7786 81.5084 29.1784 84.07 29.4244C86.6316 29.6704 99.787 3.82178 99.787 3.82178Z" fill="black"/>
<path d="M103.695 31.6367C103.695 31.6367 103.029 43.0269 103.232 43.8519C103.434 44.6768 107.704 45.5018 108.905 46.5004C110.106 47.4991 102.711 59.0484 98.9479 60.7562C95.1851 62.4641 83.5492 58.1077 82.7388 52.3185C82.0007 46.978 86.0819 42.8388 87.6449 41.3915C88.7146 41.3171 89.7882 41.3171 90.8578 41.3915L91.1907 35.8628C96.285 34.2418 103.695 31.7091 103.695 31.7091" fill="#7B4217"/>
<path d="M70.1907 92.4226C66.9602 96.8591 63.1378 100.833 58.8299 104.232C57.463 105.657 56.1685 107.15 54.9513 108.705C52.918 111.05 50.2873 112.8 47.3388 113.77C44.7627 114.436 43.6772 114.262 43.2431 113.77C42.8089 113.278 43.0115 112.54 44.1404 112.106C45.9635 111.569 47.661 110.673 49.1333 109.472C49.1333 109.472 46.7309 110.572 45.2258 111.107C43.8675 111.578 42.4498 111.855 41.0143 111.932C39.5671 111.932 38.1198 110.282 39.2342 109.805C40.3486 109.327 41.3761 109.284 43.5759 108.459C44.7462 108.043 45.8559 107.474 46.8756 106.765C45.343 107.221 43.7743 107.545 42.1866 107.735C40.8629 107.952 39.5051 107.796 38.2646 107.286C37.5988 106.997 37.0199 105.839 38.5106 105.39C40.4457 105.206 42.3482 104.768 44.1693 104.088C45.906 103.292 47.0638 102.467 46.6151 102.293C46.1665 102.119 45.1679 102.669 43.4891 102.539C41.8103 102.409 40.117 101.309 40.1315 100.368C40.146 99.4275 40.5078 99.9485 42.2155 99.8038C43.9233 99.659 45.2837 98.8775 47.7295 98.8775C49.5617 98.9502 51.3937 98.7304 53.1567 98.2262C55.0091 97.6762 59.1772 92.6831 62.3756 88.0952C65.8497 82.991 68.5968 77.4283 70.5381 71.5671C72.4629 65.2569 74.7495 53.447 76.327 49.3511C77.9045 45.2553 80.77 43.3738 83.4474 43.287C86.588 43.1857 87.9339 47.3249 87.0945 50.8997C85.6473 57.1665 78.6426 81.2929 70.1328 92.466" fill="#7B4217"/>
<path d="M105.258 44.9684C108.456 45.4605 112.117 47.1683 112.624 48.9195C113.203 50.9747 114.476 60.5992 111.698 67.937C108.919 75.2748 105.793 88.4885 104.201 91.6581C104.201 91.6581 91.5232 93.9159 80.3505 86.9978C80.3505 86.9978 79.6847 74.2472 79.6413 70.05C69.337 61.0478 78.1941 49.9761 86.8775 41.3502C87.9226 41.2635 88.973 41.2635 90.0181 41.3502C90.0181 41.3502 82.2319 50.555 87.6446 55.8231C99.2225 52.3062 101.553 47.1394 105.258 45.0263" fill="white"/>
<path d="M82.4208 17.5129C83.5642 10.2764 88.8466 4.67539 96.4012 5.10957C99.4449 5.26589 102.362 6.37914 104.735 8.29064C107.109 10.2021 108.819 12.8143 109.621 15.7547C110.423 18.6952 110.277 21.8138 109.202 24.6659C108.128 27.5181 106.18 29.9582 103.637 31.6385C103.377 32.7458 102.988 33.8192 102.48 34.837C99.7877 37.9487 92.6963 39.917 90.3517 39.9459C88.3256 39.9459 86.5744 38.0789 84.6785 34.9383C80.7276 28.382 81.784 21.1311 82.3629 17.5708" fill="#7B4217"/>
<path d="M98.73 5.26686C104.027 6.30891 108.383 7.79961 109.816 12.9954C110.8 16.5847 112.088 23.4014 110.858 26.2815L110.105 28.3512L103.694 31.6655C103.694 31.6655 100.698 29.1617 101.639 21.8528C101.598 20.8645 101.283 19.9071 100.727 19.0885C100.329 18.4011 100.032 17.6603 99.8444 16.8886C99.0887 14.9108 97.6016 13.2993 95.6908 12.3875C90.9149 9.71004 83.9247 12.0257 82.9551 12.9809C84.3008 10.0807 86.6028 7.73143 89.4749 6.32694C92.347 4.92245 95.6147 4.54816 98.73 5.26686Z" fill="black"/>
<path d="M69.5827 180.391C66.9053 182.576 62.7373 181.071 62.5346 181.274C59.8138 183.995 55.7471 186.383 52.7223 188.756C51.058 190.073 48.453 191.839 48.9306 194.357C49.77 198.873 56.9917 197.483 59.727 196.109C62.4623 194.734 64.6766 192.432 67.2527 190.826C69.0906 189.683 70.8997 189.104 71.1892 186.773C71.3628 185.326 70.0603 180.347 69.5827 180.391" fill="black"/>
<path d="M71.1615 185.863C70.7997 188.092 69.0196 188.758 67.1961 189.843C64.5621 191.464 62.261 193.823 59.5402 195.198C56.8194 196.573 50.7265 197.76 49.0332 194.518C49.9884 198.86 57.0943 197.5 59.8007 196.139C62.507 194.779 64.7502 192.463 67.3263 190.856C69.1643 189.713 70.9734 189.134 71.2628 186.804C71.2969 186.491 71.2969 186.176 71.2628 185.863" fill="#BF4B4B"/>
<path d="M56.5285 173.153C54.0827 175.15 50.3777 174.035 50.1896 174.224C47.7003 176.727 43.9954 178.869 41.2167 181.055C39.6971 182.256 37.3092 183.863 37.7433 186.178C38.5104 190.318 45.1243 189.073 47.628 187.785C50.1317 186.497 52.1578 184.413 54.5313 182.951C56.2101 181.909 57.8745 181.359 58.135 179.231C58.2942 177.943 56.9627 173.109 56.5285 173.153" fill="black"/>
<path d="M58.1072 178.322C57.7743 180.348 56.1389 180.913 54.4746 181.955C52.0722 183.402 49.9592 185.602 47.4555 186.861C44.9518 188.12 39.3943 189.191 37.7734 186.239C38.6563 190.219 45.1544 188.974 47.6292 187.686C50.1039 186.398 52.159 184.328 54.5325 182.866C56.2113 181.81 57.8756 181.274 58.1361 179.147C58.1704 178.863 58.1704 178.577 58.1361 178.293" fill="#BF4B4B"/>
<path d="M93.6363 94.4656C86.3726 95.4232 78.9856 94.3564 72.2895 91.3828C72.4053 93.6406 72.5211 95.7247 72.5211 95.7247C63.8376 101.861 46.4707 112.195 45.2695 119.33C46.3984 141.864 49.8283 174.052 50.798 174.515C53.5333 175.818 55.4436 175.601 56.7172 174.313C56.7172 174.313 62.2023 155.223 60.6103 127.203C60.6103 127.203 91.0024 113.743 92.9851 106.391C94.1284 102.151 93.8969 101.615 93.81 97.2299C93.81 96.3181 93.7232 95.4208 93.6363 94.5234" fill="#7B4217"/>
<path d="M103.724 91.543C97.7034 94.3507 92.146 94.6981 85.3729 94.0034C85.4597 97.0137 85.8071 102.687 85.8071 102.687C77.1236 108.824 59.7567 119.157 58.541 126.292C59.6843 148.827 61.7828 181.463 62.7814 181.869C63.9541 182.381 65.2417 182.573 66.5129 182.426C67.7841 182.278 68.9934 181.796 70.0176 181.029C70.0176 181.029 75.5027 162.214 73.9107 134.166C73.9107 133.645 99.9611 120.822 103.261 117.421C106.807 113.788 107.212 108.997 107.125 104.192C107.038 99.6768 105.678 95.9572 103.753 91.543" fill="#7B4217"/>
<path d="M110.107 96.316C110.107 96.316 119.746 113.38 103.681 122.15C86.7485 131.398 76.4152 133.569 76.4152 133.569L73.8825 134.163C73.8825 134.163 75.0837 140.357 73.8825 151.892C73.8825 151.892 61.7981 156.118 46.3849 142.542L41.2762 126.101L40.6683 121.759C40.3731 120.27 40.4541 118.73 40.9039 117.279C41.3537 115.829 42.1582 114.513 43.2444 113.452C46.9349 110.109 58.6575 101.526 65.9516 96.6054C73.2457 91.6846 79.0637 86.9954 79.0637 86.9954L80.3372 85.8086C80.3372 85.8086 89.0207 92.6832 104.781 90.382C106.873 92.0639 108.685 94.0667 110.15 96.316" fill="#727272"/>
<path d="M100.554 121.63C102.001 120.631 102.985 119.199 105.214 117.954C106.942 117.092 108.525 115.964 109.903 114.611C111.35 113.163 113.564 106.94 114.708 100.89C115.756 94.1325 115.639 87.2449 114.36 80.5268C112.362 72.5008 109.664 64.6652 106.299 57.1097C104.157 52.5796 105.358 49.8732 107.312 47.818C109.613 45.4589 112.016 45.5168 114.737 51.8415C117.457 58.1662 121.814 70.1208 123.203 79.3401C124.302 86.2227 124.209 93.2431 122.928 100.094C121.785 106.083 119.929 111.914 117.399 117.462C116.69 119.097 116.575 120.472 115.605 123.743C114.662 126.996 112.949 129.975 110.612 132.427C108.528 134.366 107.471 134.742 106.892 134.482C106.314 134.221 106.212 133.425 107.066 132.427C108.534 130.951 109.721 129.219 110.568 127.318C110.568 127.318 108.817 129.59 107.674 130.864C106.64 131.985 105.456 132.959 104.157 133.758C102.884 134.525 100.872 133.628 101.711 132.6C102.551 131.573 103.462 131.008 105.17 129.098C106.081 128.096 106.868 126.988 107.515 125.798C106.303 127.002 104.997 128.105 103.607 129.098C102.531 129.961 101.23 130.498 99.8589 130.647C99.1497 130.647 98.1656 129.822 99.3668 128.693C101.063 127.577 102.627 126.271 104.027 124.8C105.3 123.15 105.981 121.818 105.561 121.833C105.141 121.847 104.461 122.875 102.811 123.642C101.161 124.409 99.251 124.148 98.9182 123.236C98.5853 122.325 99.0918 122.643 100.597 121.63" fill="#7B4217"/>
<path d="M118.948 60.3511C118.948 60.3511 113.159 65.5324 106.603 64.4759L104.027 53.6212C104.027 53.6212 102.305 47.832 107.211 45.7189C112.117 43.6059 116.778 49.2503 118.891 60.3511" fill="#F5F5F5"/>
<path d="M86.8787 41.3473C86.8787 41.3473 80.5542 39.4224 73.8535 53.4321L76.3572 54.9518C76.3572 54.9518 82.9711 44.951 86.8932 41.3473" fill="#F5F5F5"/>
<path d="M43.2441 101.772L65.7777 88.7468C65.9735 88.6337 66.1956 88.5742 66.4217 88.5742C66.6478 88.5742 66.8699 88.6337 67.0657 88.7468L106.575 111.556L83.4196 124.944L43.2441 101.772Z" fill="white"/>
<path d="M83.9687 119.821L85.6909 120.82C85.8356 120.82 85.8067 121.037 85.6909 121.138L84.041 122.079C83.958 122.121 83.8663 122.143 83.7733 122.143C83.6803 122.143 83.5886 122.121 83.5055 122.079L81.7399 121.051C81.5952 120.964 81.6097 120.834 81.7399 120.733L83.3898 119.792C83.4742 119.747 83.5687 119.723 83.6647 119.723C83.7607 119.723 83.8552 119.747 83.9397 119.792" fill="#727272"/>
<path d="M81.5224 118.416L83.2446 119.415C83.3893 119.415 83.3749 119.632 83.2446 119.719L81.5948 120.674C81.5084 120.713 81.4146 120.733 81.3198 120.733C81.2249 120.733 81.1312 120.713 81.0448 120.674L79.3226 119.675C79.1779 119.588 79.2068 119.444 79.3226 119.357L80.958 118.402C81.0432 118.358 81.1374 118.336 81.233 118.336C81.3285 118.336 81.4227 118.358 81.5079 118.402" fill="#727272"/>
<path d="M79.062 116.983L80.7842 117.982C80.9144 118.069 80.9 118.199 80.7842 118.3L79.1343 119.255C79.0517 119.299 78.9598 119.321 78.8666 119.321C78.7734 119.321 78.6815 119.299 78.5988 119.255L76.8766 118.257C76.7319 118.184 76.7464 118.04 76.8766 117.953L78.5265 116.998C78.612 116.956 78.7061 116.934 78.8015 116.934C78.8968 116.934 78.9909 116.956 79.0764 116.998" fill="#727272"/>
<path d="M76.6459 115.595L78.3682 116.594C78.5129 116.681 78.4984 116.811 78.3682 116.912L76.7328 117.853C76.6483 117.899 76.5538 117.923 76.4578 117.923C76.3618 117.923 76.2673 117.899 76.1828 117.853L74.4606 116.854C74.3159 116.782 74.3304 116.637 74.4606 116.536L76.096 115.595C76.1815 115.553 76.2756 115.531 76.371 115.531C76.4663 115.531 76.5604 115.553 76.6459 115.595Z" fill="#727272"/>
<path d="M74.214 114.191L75.9362 115.189C76.0665 115.262 76.052 115.406 75.9362 115.508L74.2864 116.448C74.2008 116.491 74.1068 116.512 74.0114 116.512C73.9161 116.512 73.822 116.491 73.7364 116.448L72.0142 115.45C71.884 115.363 71.8984 115.233 72.0142 115.131L73.6641 114.191C73.7486 114.145 73.843 114.121 73.939 114.121C74.035 114.121 74.1295 114.145 74.214 114.191Z" fill="#727272"/>
<path d="M71.769 112.788L73.4912 113.773C73.6359 113.859 73.6215 114.004 73.4912 114.091L71.8558 115.046C71.7706 115.089 71.6764 115.112 71.5809 115.112C71.4853 115.112 71.3911 115.089 71.3059 115.046L69.5837 114.062C69.4389 113.975 69.4534 113.83 69.5837 113.744L71.219 112.788C71.3043 112.745 71.3985 112.723 71.494 112.723C71.5896 112.723 71.6838 112.745 71.769 112.788Z" fill="#727272"/>
<path d="M69.2941 111.37L71.0163 112.369C71.1466 112.455 71.1321 112.586 71.0163 112.687L69.3665 113.642C69.2812 113.685 69.187 113.708 69.0915 113.708C68.9959 113.708 68.9017 113.685 68.8165 113.642L67.0943 112.644C66.964 112.644 66.9785 112.426 67.0943 112.34L68.7441 111.384C68.8297 111.342 68.9238 111.32 69.0191 111.32C69.1145 111.32 69.2086 111.342 69.2941 111.384" fill="#727272"/>
<path d="M66.892 109.964L68.6143 110.963C68.759 111.035 68.7445 111.18 68.6143 111.281L66.9789 112.222C66.8933 112.264 66.7992 112.286 66.7039 112.286C66.6085 112.286 66.5145 112.264 66.4289 112.222L64.7067 111.223C64.562 111.136 64.5765 111.006 64.7067 110.905L66.3421 109.964C66.4266 109.918 66.5211 109.895 66.6171 109.895C66.7131 109.895 66.8076 109.918 66.892 109.964Z" fill="#727272"/>
<path d="M64.4601 108.561L66.1823 109.545C66.3126 109.632 66.2981 109.776 66.1823 109.863L64.5325 110.818C64.4461 110.858 64.3524 110.878 64.2575 110.878C64.1627 110.878 64.0689 110.858 63.9825 110.818L62.2603 109.82C62.1301 109.733 62.1445 109.588 62.2603 109.501L63.9102 108.546C63.9954 108.503 64.0896 108.48 64.1851 108.48C64.2807 108.48 64.3749 108.503 64.4601 108.546" fill="#727272"/>
<path d="M62.057 107.145L63.7792 108.143C63.9239 108.23 63.9095 108.375 63.7792 108.462L62.057 109.475C61.9718 109.518 61.8776 109.54 61.782 109.54C61.6865 109.54 61.5923 109.518 61.507 109.475L59.7848 108.491C59.6401 108.404 59.6546 108.259 59.7848 108.172L61.4202 107.217C61.5066 107.178 61.6003 107.157 61.6952 107.157C61.79 107.157 61.8838 107.178 61.9702 107.217" fill="#727272"/>
<path d="M59.5832 105.74L61.3054 106.738C61.4356 106.825 61.4212 106.956 61.3054 107.057L59.6555 107.998C59.571 108.043 59.4766 108.067 59.3806 108.067C59.2846 108.067 59.1901 108.043 59.1056 107.998L57.3834 106.999C57.2531 106.927 57.2676 106.782 57.3834 106.681L59.0332 105.74C59.1188 105.698 59.2128 105.676 59.3082 105.676C59.4035 105.676 59.4976 105.698 59.5832 105.74Z" fill="#727272"/>
<path d="M57.1362 104.335L58.8584 105.334C59.0031 105.406 58.9886 105.551 58.8584 105.652L57.223 106.593C57.1375 106.635 57.0434 106.657 56.948 106.657C56.8527 106.657 56.7586 106.635 56.6731 106.593L54.9508 105.594C54.8061 105.507 54.8206 105.377 54.9508 105.276L56.5862 104.335C56.6707 104.289 56.7652 104.266 56.8612 104.266C56.9572 104.266 57.0517 104.289 57.1362 104.335Z" fill="#727272"/>
<path d="M54.7062 102.933L56.4284 103.917C56.5587 104.004 56.5442 104.149 56.4284 104.236L54.7786 105.191C54.6934 105.234 54.5991 105.256 54.5036 105.256C54.408 105.256 54.3138 105.234 54.2286 105.191L52.5064 104.207C52.3762 104.12 52.3906 103.975 52.5064 103.888L54.1563 102.933C54.2415 102.89 54.3357 102.867 54.4312 102.867C54.5268 102.867 54.621 102.89 54.7062 102.933Z" fill="#727272"/>
<path d="M51.0873 100.788L53.9818 102.453C54.1266 102.54 54.1121 102.684 53.9818 102.771L52.3465 103.726C52.2612 103.77 52.167 103.792 52.0715 103.792C51.9759 103.792 51.8817 103.77 51.7965 103.726L48.902 102.062C48.7573 101.975 48.7718 101.83 48.902 101.744L50.5519 100.788C50.6371 100.745 50.7313 100.723 50.8268 100.723C50.9224 100.723 51.0166 100.745 51.1018 100.788" fill="#727272"/>
<path d="M82.7104 116.361L84.4326 117.36C84.5773 117.447 84.5629 117.592 84.4326 117.678L82.7972 118.634C82.712 118.677 82.6178 118.699 82.5223 118.699C82.4267 118.699 82.3325 118.677 82.2473 118.634L80.5251 117.649C80.3803 117.563 80.3948 117.418 80.5251 117.331L82.1604 116.376C82.2468 116.337 82.3406 116.316 82.4354 116.316C82.5303 116.316 82.624 116.337 82.7104 116.376" fill="#727272"/>
<path d="M80.2635 114.958L81.9858 115.957C82.1305 116.029 82.116 116.174 81.9858 116.276L80.3359 117.216C80.2504 117.258 80.1563 117.28 80.0609 117.28C79.9656 117.28 79.8715 117.258 79.7859 117.216L77.9769 116.247C77.8322 116.16 77.8611 116.03 77.9769 115.928L79.6123 114.987C79.6968 114.942 79.7913 114.918 79.8873 114.918C79.9833 114.918 80.0777 114.942 80.1622 114.987" fill="#727272"/>
<path d="M77.832 113.554L79.5398 114.538C79.6845 114.625 79.67 114.77 79.5398 114.857L77.8899 115.812C77.8047 115.855 77.7105 115.878 77.6149 115.878C77.5194 115.878 77.4252 115.855 77.34 115.812L75.6177 114.828C75.4875 114.741 75.502 114.596 75.6177 114.509L77.2676 113.554C77.3528 113.511 77.447 113.488 77.5426 113.488C77.6381 113.488 77.7323 113.511 77.8175 113.554" fill="#727272"/>
<path d="M75.3859 112.134L77.1081 113.133C77.2384 113.205 77.2239 113.35 77.1081 113.451L75.4583 114.392C75.3727 114.434 75.2786 114.456 75.1833 114.456C75.0879 114.456 74.9939 114.434 74.9083 114.392L73.1861 113.394C73.0558 113.394 73.0703 113.176 73.1861 113.075L74.836 112.134C74.9215 112.092 75.0156 112.07 75.1109 112.07C75.2063 112.07 75.3004 112.092 75.3859 112.134Z" fill="#727272"/>
<path d="M72.9548 110.734L74.6771 111.732C74.8218 111.819 74.8073 111.964 74.6771 112.051L73.0272 113.006C72.942 113.049 72.8478 113.072 72.7522 113.072C72.6567 113.072 72.5625 113.049 72.4773 113.006L70.7406 112.022C70.5958 112.022 70.6248 111.805 70.7406 111.718L72.376 110.763C72.4623 110.723 72.5561 110.703 72.6509 110.703C72.7458 110.703 72.8395 110.723 72.9259 110.763" fill="#727272"/>
<path d="M70.5089 109.327L72.2312 110.326C72.3759 110.326 72.3614 110.543 72.2312 110.644L70.5813 111.585C70.4958 111.627 70.4017 111.649 70.3063 111.649C70.211 111.649 70.1169 111.627 70.0314 111.585L68.3091 110.587C68.1789 110.5 68.1934 110.369 68.3091 110.268L69.959 109.327C70.0409 109.282 70.133 109.258 70.2267 109.258C70.3205 109.258 70.4126 109.282 70.4945 109.327" fill="#727272"/>
<path d="M68.0773 107.925L69.7995 108.909C69.9298 108.996 69.9153 109.141 69.7995 109.228L68.1497 110.183C68.0645 110.226 67.9702 110.249 67.8747 110.249C67.7791 110.249 67.6849 110.226 67.5997 110.183L65.8775 109.199C65.7472 109.112 65.7617 108.967 65.8775 108.88L67.5274 107.925C67.6126 107.882 67.7068 107.859 67.8023 107.859C67.8979 107.859 67.9921 107.882 68.0773 107.925Z" fill="#727272"/>
<path d="M65.6323 106.577L67.3545 107.576C67.4992 107.648 67.4703 107.793 67.3545 107.894L65.7191 108.835C65.6336 108.877 65.5395 108.899 65.4441 108.899C65.3488 108.899 65.2547 108.877 65.1692 108.835L63.4469 107.836C63.3022 107.75 63.3167 107.619 63.4469 107.518L65.0968 106.577C65.1813 106.532 65.2758 106.508 65.3718 106.508C65.4678 106.508 65.5623 106.532 65.6467 106.577" fill="#727272"/>
<path d="M63.187 105.132L64.9092 106.116C65.0539 106.203 65.0394 106.348 64.9092 106.435L63.2738 107.39C63.1886 107.433 63.0944 107.456 62.9988 107.456C62.9033 107.456 62.8091 107.433 62.7238 107.39L61.0016 106.406C60.8569 106.319 60.8714 106.174 61.0016 106.087L62.637 105.132C62.7222 105.089 62.8164 105.066 62.912 105.066C63.0075 105.066 63.1017 105.089 63.187 105.132Z" fill="#727272"/>
<path d="M60.7412 103.685L62.4634 104.684C62.6081 104.771 62.5936 104.901 62.4634 105.002L60.8135 105.943C60.729 105.989 60.6345 106.012 60.5385 106.012C60.4425 106.012 60.348 105.989 60.2636 105.943L58.5413 104.944C58.3966 104.944 58.4256 104.727 58.5413 104.626L60.1767 103.685C60.2623 103.643 60.3564 103.621 60.4517 103.621C60.5471 103.621 60.6411 103.643 60.7267 103.685" fill="#727272"/>
<path d="M58.2941 102.238L60.0163 103.222C60.161 103.308 60.1466 103.453 60.0163 103.54L58.3665 104.495C58.2812 104.539 58.187 104.561 58.0915 104.561C57.9959 104.561 57.9017 104.539 57.8165 104.495L56.0943 103.511C55.964 103.424 55.9785 103.28 56.0943 103.193L57.7152 102.238C57.7979 102.194 57.8897 102.172 57.9829 102.172C58.0762 102.172 58.168 102.194 58.2507 102.238" fill="#727272"/>
<path d="M55.8644 100.861L57.5866 101.86C57.7169 101.946 57.7024 102.077 57.5866 102.178L55.9368 103.119C55.8523 103.164 55.7578 103.188 55.6618 103.188C55.5658 103.188 55.4713 103.164 55.3868 103.119L53.6646 102.12C53.5344 102.048 53.5488 101.903 53.6646 101.802L55.3145 100.861C55.4 100.819 55.4941 100.797 55.5894 100.797C55.6848 100.797 55.7789 100.819 55.8644 100.861Z" fill="#727272"/>
<path d="M85.2143 117.78L88.1088 119.459C88.2535 119.459 88.239 119.676 88.1088 119.763L86.4734 120.718C86.387 120.758 86.2933 120.778 86.1984 120.778C86.1036 120.778 86.0098 120.758 85.9235 120.718L83.029 119.04C82.8842 118.953 82.8987 118.822 83.029 118.721L84.6788 117.78C84.7633 117.735 84.8578 117.711 84.9538 117.711C85.0498 117.711 85.1443 117.735 85.2288 117.78" fill="#727272"/>
<path d="M51.2026 100.789L52.9249 101.787C53.0023 101.83 53.0895 101.853 53.1781 101.853C53.2668 101.853 53.3539 101.83 53.4314 101.787L55.1681 100.789C55.3128 100.702 55.3128 100.572 55.1681 100.485H55.0234C54.9944 100.475 54.9692 100.457 54.9513 100.432C54.9335 100.408 54.9238 100.378 54.9238 100.347C54.9238 100.317 54.9335 100.287 54.9513 100.262C54.9692 100.238 54.9944 100.219 55.0234 100.21L56.8614 99.1533C57.0061 99.0665 57.0061 98.9362 56.8614 98.8494L55.7759 98.2126C55.6948 98.1729 55.6057 98.1523 55.5154 98.1523C55.4251 98.1523 55.336 98.1729 55.2549 98.2126L53.5472 99.1967L53.1854 99.3994L52.9249 99.5586L52.6788 99.7033L51.2316 100.557C51.0869 100.644 51.0869 100.774 51.2316 100.847" fill="#727272"/>
<path d="M93.4052 114.367L95.1274 115.351C95.2722 115.438 95.2577 115.582 95.1274 115.669L93.4776 116.624C93.3924 116.668 93.2982 116.69 93.2026 116.69C93.107 116.69 93.0128 116.668 92.9276 116.624L91.2054 115.64C91.0607 115.553 91.0896 115.409 91.2054 115.322L92.8408 114.367C92.926 114.323 93.0202 114.301 93.1158 114.301C93.2113 114.301 93.3055 114.323 93.3907 114.367" fill="#727272"/>
<path d="M91.003 112.96L92.7252 113.944C92.8699 114.031 92.8554 114.176 92.7252 114.262L91.003 115.261C90.9178 115.304 90.8235 115.327 90.728 115.327C90.6324 115.327 90.5382 115.304 90.453 115.261L88.7308 114.277C88.5861 114.19 88.615 114.045 88.7308 113.958L90.3662 113.003C90.4514 112.96 90.5456 112.938 90.6412 112.938C90.7367 112.938 90.8309 112.96 90.9161 113.003" fill="#727272"/>
<path d="M88.5419 111.558L90.2642 112.542C90.4089 112.629 90.3944 112.774 90.2642 112.861L88.6143 113.816C88.5291 113.859 88.4349 113.881 88.3393 113.881C88.2438 113.881 88.1496 113.859 88.0644 113.816L86.3421 112.832C86.1974 112.745 86.2263 112.6 86.3421 112.513L87.9775 111.558C88.0627 111.515 88.1569 111.492 88.2525 111.492C88.348 111.492 88.4423 111.515 88.5275 111.558" fill="#727272"/>
<path d="M67.8466 99.5886L69.5688 100.587C69.7136 100.674 69.6991 100.804 69.5688 100.906L67.919 101.861C67.8338 101.904 67.7396 101.927 67.644 101.927C67.5485 101.927 67.4542 101.904 67.369 101.861L65.6468 100.862C65.5021 100.79 65.531 100.645 65.6468 100.544L67.2822 99.6031C67.3677 99.561 67.4618 99.5391 67.5572 99.5391C67.6525 99.5391 67.7466 99.561 67.8322 99.6031" fill="#727272"/>
<path d="M65.4013 98.1863L67.1235 99.1849C67.2683 99.2718 67.2538 99.402 67.1235 99.5033L65.4737 100.459C65.3885 100.502 65.2942 100.524 65.1987 100.524C65.1031 100.524 65.0089 100.502 64.9237 100.459L63.2015 99.4599C63.0568 99.3876 63.0857 99.2428 63.2015 99.156L64.8369 98.2008C64.9224 98.1586 65.0165 98.1367 65.1119 98.1367C65.2072 98.1367 65.3013 98.1586 65.3868 98.2008" fill="#727272"/>
<path d="M62.9697 96.78L64.6919 97.7787C64.8366 97.8655 64.8221 97.9958 64.6919 98.0971L63.042 99.0523C62.9568 99.0955 62.8626 99.1181 62.7671 99.1181C62.6715 99.1181 62.5773 99.0955 62.4921 99.0523L60.7699 98.0537C60.6251 97.9813 60.6541 97.8366 60.7699 97.7353L62.4052 96.7945C62.4908 96.7524 62.5849 96.7305 62.6802 96.7305C62.7756 96.7305 62.8697 96.7524 62.9552 96.7945" fill="#727272"/>
<path d="M60.6103 95.3777L62.3325 96.3763C62.4772 96.4632 62.4628 96.5934 62.3325 96.6947L60.6827 97.65C60.5974 97.6932 60.5032 97.7157 60.4077 97.7157C60.3121 97.7157 60.2179 97.6932 60.1327 97.65L58.4105 96.6513C58.2658 96.579 58.2947 96.4342 58.4105 96.3329L60.0459 95.3922C60.1314 95.3501 60.2255 95.3281 60.3208 95.3281C60.4162 95.3281 60.5103 95.3501 60.5958 95.3922" fill="#727272"/>
<path d="M85.4885 109.775L87.8331 111.136C87.9778 111.223 87.9633 111.367 87.8331 111.454L86.1832 112.41C86.098 112.453 86.0038 112.475 85.9082 112.475C85.8127 112.475 85.7185 112.453 85.6333 112.41L83.2887 111.049C83.144 111.049 83.1585 110.832 83.2887 110.745L84.9386 109.79C85.025 109.751 85.1187 109.73 85.2136 109.73C85.3084 109.73 85.4022 109.751 85.4885 109.79" fill="#727272"/>
<path d="M70.2642 100.993L72.6232 102.353C72.7535 102.44 72.739 102.57 72.6232 102.671L70.9734 103.627C70.8882 103.67 70.794 103.692 70.6984 103.692C70.6029 103.692 70.5087 103.67 70.4234 103.627L68.0355 102.237C67.8908 102.165 67.9197 102.02 68.0355 101.919L69.6709 100.978C69.7564 100.936 69.8505 100.914 69.9458 100.914C70.0412 100.914 70.1353 100.936 70.2208 100.978" fill="#727272"/>
<path d="M73.3315 102.757L84.7792 109.371C84.9239 109.458 84.9094 109.602 84.7792 109.689L83.1438 110.644C83.0586 110.688 82.9644 110.71 82.8688 110.71C82.7733 110.71 82.6791 110.688 82.5938 110.644L71.1462 104.03C71.0014 103.958 71.0159 103.813 71.1462 103.712L72.796 102.771C72.8816 102.729 72.9756 102.707 73.071 102.707C73.1663 102.707 73.2604 102.729 73.346 102.771" fill="#727272"/>
<path d="M84.4171 114.627L86.1394 115.611C86.2696 115.698 86.2551 115.843 86.1394 115.93L84.4895 116.885C84.4031 116.924 84.3094 116.944 84.2145 116.944C84.1197 116.944 84.0259 116.924 83.9396 116.885L82.2173 115.886C82.0871 115.799 82.1016 115.655 82.2173 115.568L83.8672 114.613C83.9524 114.569 84.0466 114.547 84.1422 114.547C84.2377 114.547 84.3319 114.569 84.4171 114.613" fill="#727272"/>
<path d="M81.9716 113.222L83.6938 114.206C83.8386 114.293 83.8241 114.438 83.6938 114.525L82.044 115.48C81.9588 115.523 81.8646 115.546 81.769 115.546C81.6735 115.546 81.5792 115.523 81.494 115.48L79.7718 114.496C79.6271 114.409 79.656 114.264 79.7718 114.177L81.4072 113.222C81.4924 113.179 81.5866 113.156 81.6822 113.156C81.7777 113.156 81.8719 113.179 81.9571 113.222" fill="#727272"/>
<path d="M79.5405 111.803L81.2627 112.802C81.4074 112.889 81.3785 113.019 81.2627 113.121L79.6273 114.076C79.5421 114.119 79.4479 114.141 79.3523 114.141C79.2568 114.141 79.1626 114.119 79.0774 114.076L77.3551 113.077C77.2104 113.005 77.2249 112.86 77.3551 112.759L79.005 111.818C79.0905 111.776 79.1846 111.754 79.28 111.754C79.3753 111.754 79.4694 111.776 79.5549 111.818" fill="#727272"/>
<path d="M77.1086 110.4L78.8308 111.399C78.961 111.485 78.9466 111.616 78.8308 111.717L77.1809 112.658C77.0964 112.703 77.0019 112.727 76.9059 112.727C76.8099 112.727 76.7154 112.703 76.631 112.658L74.9087 111.659C74.7785 111.587 74.793 111.442 74.9087 111.341L76.5586 110.4C76.6441 110.358 76.7382 110.336 76.8336 110.336C76.9289 110.336 77.023 110.358 77.1086 110.4Z" fill="#727272"/>
<path d="M74.663 108.995L76.3853 109.994C76.53 109.994 76.5155 110.211 76.3853 110.312L74.7354 111.253C74.6499 111.295 74.5558 111.317 74.4604 111.317C74.3651 111.317 74.271 111.295 74.1854 111.253L72.4632 110.254C72.3185 110.168 72.3474 110.037 72.4632 109.936L74.0986 108.995C74.1831 108.95 74.2776 108.926 74.3736 108.926C74.4696 108.926 74.5641 108.95 74.6486 108.995" fill="#727272"/>
<path d="M72.1889 107.592L73.9111 108.591C74.0559 108.663 74.0269 108.808 73.9111 108.895L72.2757 109.85C72.1894 109.889 72.0956 109.909 72.0008 109.909C71.9059 109.909 71.8122 109.889 71.7258 109.85L70.0036 108.851C69.8589 108.764 69.8733 108.62 70.0036 108.533L71.6534 107.577C71.7386 107.534 71.8329 107.512 71.9284 107.512C72.024 107.512 72.1182 107.534 72.2034 107.577" fill="#727272"/>
<path d="M69.8 106.187L71.5222 107.171C71.6524 107.258 71.638 107.403 71.5222 107.489L69.8723 108.445C69.7871 108.488 69.6929 108.51 69.5973 108.51C69.5018 108.51 69.4076 108.488 69.3224 108.445L67.6002 107.46C67.4699 107.374 67.4844 107.229 67.6002 107.142L69.25 106.187C69.3352 106.144 69.4294 106.121 69.525 106.121C69.6205 106.121 69.7147 106.144 69.8 106.187Z" fill="#727272"/>
<path d="M67.3544 104.768L69.0767 105.766C69.2214 105.853 69.2069 105.998 69.0767 106.085L67.4268 107.04C67.3416 107.083 67.2474 107.106 67.1518 107.106C67.0563 107.106 66.9621 107.083 66.8769 107.04L65.1546 106.041C65.0099 106.041 65.0388 105.824 65.1546 105.737L66.79 104.782C66.8764 104.743 66.9701 104.723 67.065 104.723C67.1598 104.723 67.2536 104.743 67.34 104.782" fill="#727272"/>
<path d="M64.9526 103.365L66.6748 104.363C66.8195 104.45 66.8051 104.581 66.6748 104.682L65.0394 105.623C64.9549 105.668 64.8604 105.692 64.7644 105.692C64.6684 105.692 64.5739 105.668 64.4895 105.623L62.7672 104.624C62.6225 104.624 62.637 104.407 62.7672 104.306L64.4026 103.365C64.4882 103.323 64.5823 103.301 64.6776 103.301C64.773 103.301 64.867 103.323 64.9526 103.365Z" fill="#727272"/>
<path d="M62.4914 101.962L64.2136 102.961C64.3438 103.033 64.3294 103.178 64.2136 103.28L62.5637 104.22C62.4792 104.266 62.3848 104.29 62.2888 104.29C62.1928 104.29 62.0983 104.266 62.0138 104.22L60.2916 103.222C60.1613 103.222 60.1758 103.005 60.2916 102.903L61.9414 101.962C62.027 101.92 62.121 101.898 62.2164 101.898C62.3117 101.898 62.4058 101.92 62.4914 101.962Z" fill="#727272"/>
<path d="M60.0458 100.558L61.7681 101.556C61.9128 101.629 61.8983 101.773 61.7681 101.875L60.1182 102.816C60.0327 102.858 59.9386 102.88 59.8432 102.88C59.7479 102.88 59.6538 102.858 59.5683 102.816L57.846 101.817C57.7013 101.73 57.7303 101.6 57.846 101.499L59.4814 100.558C59.5659 100.512 59.6604 100.488 59.7564 100.488C59.8524 100.488 59.9469 100.512 60.0314 100.558" fill="#727272"/>
<path d="M57.6147 99.1556L59.3369 100.14C59.4816 100.227 59.4672 100.371 59.3369 100.458L57.7015 101.413C57.6163 101.457 57.5221 101.479 57.4266 101.479C57.331 101.479 57.2368 101.457 57.1516 101.413L55.4294 100.429C55.2846 100.342 55.2991 100.198 55.4294 100.111L57.0647 99.1556C57.15 99.1124 57.2442 99.0898 57.3397 99.0898C57.4353 99.0898 57.5295 99.1124 57.6147 99.1556Z" fill="#727272"/>
<path d="M86.8491 116.031L90.4093 118.159C90.554 118.246 90.5395 118.376 90.4093 118.477L88.7739 119.418C88.6894 119.464 88.5949 119.487 88.4989 119.487C88.4029 119.487 88.3084 119.464 88.224 119.418L84.6637 117.363C84.519 117.276 84.5335 117.131 84.6637 117.044L86.3136 116.089C86.3988 116.046 86.493 116.023 86.5886 116.023C86.6841 116.023 86.7783 116.046 86.8635 116.089" fill="#727272"/>
<path d="M87.9773 113.959L89.6996 114.943C89.8443 115.03 89.8298 115.174 89.6996 115.261L88.0497 116.216C87.9645 116.26 87.8703 116.282 87.7747 116.282C87.6792 116.282 87.585 116.26 87.4998 116.216L85.7486 115.261C85.6183 115.174 85.6328 115.03 85.7486 114.943L87.3984 113.988C87.4811 113.944 87.573 113.922 87.6662 113.922C87.7594 113.922 87.8513 113.944 87.9339 113.988" fill="#727272"/>
<path d="M85.5468 112.557L87.269 113.541C87.4137 113.628 87.3993 113.773 87.269 113.859L85.6336 114.815C85.5484 114.858 85.4542 114.88 85.3586 114.88C85.2631 114.88 85.1689 114.858 85.0837 114.815L83.318 113.816C83.1733 113.729 83.1878 113.584 83.318 113.498L84.9534 112.542C85.0386 112.499 85.1328 112.477 85.2284 112.477C85.3239 112.477 85.4182 112.499 85.5034 112.542" fill="#727272"/>
<path d="M83.1159 111.136L84.8382 112.135C84.9829 112.221 84.9539 112.352 84.8382 112.453L83.2028 113.408C83.1176 113.451 83.0234 113.474 82.9278 113.474C82.8322 113.474 82.738 113.451 82.6528 113.408L80.8727 112.366C80.728 112.366 80.7425 112.149 80.8727 112.048L82.5226 111.107C82.6081 111.065 82.7022 111.043 82.7976 111.043C82.8929 111.043 82.987 111.065 83.0725 111.107" fill="#727272"/>
<path d="M80.6828 109.732L82.405 110.731C82.5352 110.731 82.5208 110.948 82.405 111.049L80.7551 111.99C80.6707 112.035 80.5762 112.059 80.4802 112.059C80.3842 112.059 80.2897 112.035 80.2052 111.99L78.483 110.991C78.3527 110.991 78.3672 110.774 78.483 110.673L80.1328 109.732C80.2184 109.69 80.3124 109.668 80.4078 109.668C80.5032 109.668 80.5972 109.69 80.6828 109.732Z" fill="#727272"/>
<path d="M78.2372 108.331L79.9595 109.33C80.1042 109.33 80.0897 109.547 79.9595 109.648L78.3096 110.589C78.2241 110.631 78.13 110.653 78.0346 110.653C77.9393 110.653 77.8452 110.631 77.7597 110.589L76.0374 109.59C75.8927 109.504 75.9217 109.373 76.0374 109.272L77.6728 108.331C77.7573 108.286 77.8518 108.262 77.9478 108.262C78.0438 108.262 78.1383 108.286 78.2228 108.331" fill="#727272"/>
<path d="M75.8073 106.926L77.5295 107.925C77.6742 107.925 77.6452 108.142 77.5295 108.229L75.8941 109.184C75.8077 109.223 75.714 109.244 75.6191 109.244C75.5243 109.244 75.4305 109.223 75.3441 109.184L73.6364 108.214C73.4917 108.128 73.5061 107.983 73.6364 107.896L75.2862 106.941C75.3715 106.898 75.4657 106.875 75.5612 106.875C75.6568 106.875 75.751 106.898 75.8362 106.941" fill="#727272"/>
<path d="M73.375 105.523L75.0827 106.58C75.213 106.667 75.1985 106.812 75.0827 106.898L73.4329 107.854C73.3477 107.897 73.2534 107.919 73.1579 107.919C73.0623 107.919 72.9681 107.897 72.8829 107.854L71.1607 106.869C71.0304 106.783 71.0449 106.638 71.1607 106.551L72.8106 105.596C72.8958 105.553 72.99 105.53 73.0855 105.53C73.1811 105.53 73.2753 105.553 73.3605 105.596" fill="#727272"/>
<path d="M70.9289 104.116L72.6511 105.101C72.7958 105.187 72.7813 105.332 72.6511 105.419L71.0012 106.374C70.916 106.417 70.8218 106.44 70.7263 106.44C70.6307 106.44 70.5365 106.417 70.4513 106.374L68.7291 105.39C68.5988 105.303 68.6133 105.158 68.7291 105.072L70.3789 104.116C70.4616 104.073 70.5534 104.051 70.6467 104.051C70.7399 104.051 70.8317 104.073 70.9144 104.116" fill="#727272"/>
<path d="M68.4975 102.698L70.2197 103.697C70.3645 103.783 70.35 103.914 70.2197 104.015L68.5843 104.97C68.4991 105.013 68.4049 105.036 68.3094 105.036C68.2138 105.036 68.1196 105.013 68.0344 104.97L66.3122 103.972C66.1674 103.899 66.1819 103.755 66.3122 103.653L67.9476 102.712C68.0331 102.67 68.1272 102.648 68.2225 102.648C68.3179 102.648 68.412 102.67 68.4975 102.712" fill="#727272"/>
<path d="M66.0666 101.298L67.8467 102.238C67.9914 102.325 67.9625 102.456 67.8467 102.557L66.2113 103.498C66.1268 103.543 66.0323 103.567 65.9363 103.567C65.8403 103.567 65.7458 103.543 65.6613 103.498L63.9391 102.499C63.7944 102.427 63.8089 102.282 63.9391 102.181L65.589 101.24C65.6745 101.198 65.7686 101.176 65.864 101.176C65.9593 101.176 66.0534 101.198 66.1389 101.24" fill="#727272"/>
<path d="M63.6359 99.8937L65.3581 100.892C65.4884 100.965 65.4739 101.109 65.3581 101.211L63.7083 102.151C63.6227 102.194 63.5286 102.216 63.4333 102.216C63.3379 102.216 63.2438 102.194 63.1583 102.151L61.4361 101.153C61.3058 101.066 61.3203 100.936 61.4361 100.834L63.0859 99.8937C63.1704 99.8481 63.2649 99.8242 63.3609 99.8242C63.4569 99.8242 63.5514 99.8481 63.6359 99.8937Z" fill="#727272"/>
<path d="M58.1799 96.7521L62.9124 99.4875C63.0572 99.5599 63.0427 99.7046 62.9124 99.8059L61.2626 100.747C61.177 100.789 61.083 100.811 60.9876 100.811C60.8922 100.811 60.7982 100.789 60.7126 100.747L55.9801 98.0112C55.8354 97.9244 55.8499 97.7797 55.9801 97.6928L57.63 96.7376C57.7152 96.6944 57.8094 96.6719 57.905 96.6719C58.0005 96.6719 58.0947 96.6944 58.1799 96.7376" fill="#727272"/>
<path d="M90.4237 115.363L92.7683 116.724C92.913 116.796 92.8985 116.941 92.7683 117.028L91.1329 117.983C91.0465 118.022 90.9528 118.042 90.8579 118.042C90.7631 118.042 90.6693 118.022 90.5829 117.983L88.195 116.709C88.0503 116.622 88.0647 116.478 88.195 116.391L89.8448 115.436C89.9301 115.392 90.0243 115.37 90.1198 115.37C90.2154 115.37 90.3096 115.392 90.3948 115.436" fill="#727272"/>
<path d="M48.6411 102.237L83.2301 122.21C83.3749 122.297 83.3604 122.427 83.2301 122.528L82.4052 123.006C82.3225 123.049 82.2307 123.071 82.1375 123.071C82.0442 123.071 81.9524 123.049 81.8697 123.006L47.2662 103.033C47.1359 103.033 47.1504 102.816 47.2662 102.715L48.0911 102.252C48.1766 102.209 48.2707 102.187 48.3661 102.188C48.4614 102.187 48.5555 102.209 48.6411 102.252" fill="#727272"/>
<path d="M89.5551 103.554L89.338 103.684L83.3754 107.129L72.7815 101.007L72.5645 100.891L78.7442 97.3164L89.5551 103.554Z" fill="#BFBFBF"/>
<path d="M89.3232 103.686L83.3751 107.13L72.7812 101.008L78.7439 97.5781L89.3232 103.686Z" fill="#D4DCEE"/>
<path d="M106.545 111.586V112.122C106.546 112.503 106.445 112.878 106.255 113.208C106.064 113.538 105.79 113.812 105.46 114.003L84.4749 126.117C84.1418 126.306 83.7653 126.405 83.3823 126.405C82.9992 126.405 82.6227 126.306 82.2896 126.117L44.314 104.19C43.9828 104.001 43.7078 103.727 43.5171 103.396C43.3264 103.066 43.2268 102.691 43.2285 102.309V101.773L83.375 124.93L106.545 111.586Z" fill="#D4DCEE"/>
<path d="M83.3758 124.974V126.421C82.9968 126.421 82.6238 126.326 82.2904 126.146L44.3147 104.19C43.9818 104.002 43.7048 103.728 43.5116 103.398C43.3184 103.067 43.2161 102.692 43.2148 102.309V101.773L83.3758 124.974Z" fill="#D4DCEE"/>
<path d="M82.7675 125.292C82.4086 125.429 82.0238 125.484 81.6408 125.454C81.2578 125.424 80.8863 125.309 80.5532 125.118L42.7368 103.278C42.4091 103.089 42.1267 102.83 41.9093 102.52C41.6918 102.21 41.5445 101.856 41.4777 101.484L37.3386 76.7929C37.3246 76.6534 37.3246 76.5128 37.3386 76.3732C37.3369 75.6852 37.6074 75.0244 38.0911 74.5352L77.3982 97.2287C77.639 97.3714 77.8462 97.5641 78.006 97.7938C78.1658 98.0235 78.2744 98.2849 78.3245 98.5602L82.7675 125.292Z" fill="white"/>
<path d="M83.3756 124.973L83.1151 125.118L82.7678 125.292L78.2958 98.5604C78.2458 98.2851 78.1372 98.0237 77.9774 97.794C77.8176 97.5642 77.6103 97.3715 77.3696 97.2289L38.0625 74.5353C38.2199 74.3847 38.3948 74.2535 38.5835 74.1445L77.9774 96.8815C78.2207 97.0211 78.43 97.213 78.5901 97.4432C78.7503 97.6735 78.8574 97.9364 78.9037 98.213L83.3756 124.973Z" fill="#D4DCEE"/>
</g>
<defs>
<clipPath id="clip0_1183_6886">
<rect width="722" height="455" fill="white"/>
</clipPath>
</defs>
</svg>
