<svg width="280" height="246" viewBox="0 0 280 246" fill="none" xmlns="http://www.w3.org/2000/svg">
<path d="M56.0873 0H227.536C230.13 0 232.616 1.02925 234.45 2.86132C236.281 4.6934 237.311 7.17818 237.311 9.7692V20.5554H46.3125V9.7692C46.3125 7.17818 47.3426 4.6934 49.1755 2.86132C51.0086 1.02925 53.4951 0 56.0873 0Z" fill="#0B225C"/>
<path d="M46.3125 20.5586H237.311V193.59C237.311 195.935 236.85 198.258 235.952 200.425C235.053 202.592 233.739 204.56 232.078 206.219C230.42 207.877 228.449 209.192 226.282 210.09C224.112 210.987 221.789 211.449 219.443 211.449H64.1819C61.8354 211.449 59.5116 210.987 57.3437 210.09C55.1755 209.192 53.2055 207.877 51.5464 206.219C49.887 204.56 48.5708 202.592 47.6727 200.425C46.7749 198.258 46.3125 195.935 46.3125 193.59V20.5586Z" fill="url(#paint0_linear_793_6842)"/>
<path d="M171.107 143.297H118.719V168.725H171.107V143.297Z" fill="#FFCCB3"/>
<path d="M118.407 158.973C112.263 165.014 109.845 194.769 110.169 211.446H183.306C183.306 211.446 183.174 175.08 177.629 162.825C172.53 151.555 164.054 168.179 118.407 158.973Z" fill="#0E1027"/>
<path d="M130.499 88.0993C130.499 88.0993 139.909 98.6547 136.78 102.04C130.582 108.999 114.096 122.077 108.695 126.406C108.462 126.585 108.196 126.715 107.911 126.79C107.628 126.865 107.332 126.884 107.041 126.844C106.75 126.804 106.469 126.707 106.216 126.558C105.963 126.41 105.741 126.213 105.565 125.978L92.7919 109.195C92.2925 108.549 92.0596 107.736 92.1409 106.923C92.2225 106.111 92.6121 105.361 93.2298 104.826L117.971 83.5039L130.499 88.0993Z" fill="#0B225C"/>
<path d="M115.643 101.512C115.643 101.512 103.916 108.478 102.859 122.474L105.195 125.472C105.195 125.472 106.661 128.026 108.693 126.399C110.726 124.772 120.126 117.247 120.126 117.247L115.643 101.512Z" fill="#0E1027"/>
<path d="M126.604 106.817C133.918 106.817 139.848 100.891 139.848 93.5805C139.848 86.2702 133.918 80.3438 126.604 80.3438C119.289 80.3438 113.359 86.2702 113.359 93.5805C113.359 100.891 119.289 106.817 126.604 106.817Z" fill="#0B225C"/>
<path d="M92.1212 135.075L80.5469 119.758L91.5039 111.257L93.2213 109.875L105.227 125.567L103.137 127.07L92.1212 135.075Z" fill="#FFCCB3"/>
<path d="M103.133 127.07C100.032 122.921 94.202 114.813 91.5 111.257L93.2174 109.875L105.193 125.473L103.133 127.07Z" fill="#FF967C"/>
<path d="M86.1615 137.202C91.4714 137.202 95.7759 132.9 95.7759 127.594C95.7759 122.286 91.4714 117.984 86.1615 117.984C80.8514 117.984 76.5469 122.286 76.5469 127.594C76.5469 132.9 80.8514 137.202 86.1615 137.202Z" fill="#FFCCB3"/>
<path d="M94.2938 122.422C94.2938 122.422 63.2794 76.9014 61.8458 73.0356C60.4506 69.2602 53.125 78.345 53.125 78.345L77.1283 130.686L94.2938 122.422Z" fill="#FFCCB3"/>
<path d="M136.995 58.9422L133.266 84.9218C133.266 84.9218 132.287 88.37 136.631 88.8919C140.975 89.414 150.237 88.2475 153.545 84.7245C156.853 81.2015 155.696 79.4561 155.696 79.4561L148.68 51.2578L136.995 58.9422Z" fill="#FFCCB3"/>
<path d="M136.476 62.3015L145.596 59.082L134.297 75.8185L136.476 62.3015Z" fill="#FF967C"/>
<path d="M126.674 26.8515C126.674 26.8515 118.849 45.2254 122.927 57.8184C125.587 66.0312 131.378 67.5078 144.641 61.3531C156.803 55.71 159.961 51.4412 159.961 51.4412L161.755 30.9589C161.755 30.9589 134.62 10.4746 126.674 26.8515Z" fill="#FFCCB3"/>
<path d="M133.207 77.4503C133.207 77.4503 123.183 80.2334 121.15 81.8598C119.115 83.4861 117.636 96.7053 114.63 103.235C110.179 112.901 107.297 118.044 114.775 128.667C119.284 135.074 117.751 151.363 117.751 151.363H172.657C170.993 119.334 178.355 81.5778 178.355 81.5778L153.575 75.8711C147.987 76.8338 133.207 77.4503 133.207 77.4503Z" fill="#0B225C"/>
<path d="M131.451 77.9669C131.451 77.9669 132.192 72.9321 134.561 72.5777C136.929 72.2233 151.404 70.0472 153.655 70.9948C155.907 71.9422 158.632 77.9669 158.632 77.9669C158.632 77.9669 154.011 89.2323 147.375 89.8244C140.739 90.4167 129.318 88.3723 130.526 84.1836C131.734 79.9952 131.451 77.9669 131.451 77.9669Z" fill="#0B225C"/>
<path d="M126 79.5C126 79.5 128.543 89.2139 137.238 89.0607C145.934 88.9072 158.5 76.5 158.5 76.5" stroke="white" stroke-width="1.35709" stroke-miterlimit="10"/>
<path d="M166.334 93.582C166.334 93.582 157.693 99.2916 160.238 105.053C163.1 111.531 163.076 128.214 154.862 129.26C140.205 131.125 146.573 133.687 153.35 135.323C160.126 136.96 157.352 136.962 157.352 143.978C157.352 148.972 173.054 153.301 172.646 149.267C169.916 122.271 181.265 105.177 166.334 93.582Z" fill="#0E1027"/>
<path d="M126 53L129.021 54.3393L133.278 53.3598C133.253 53.4494 133.213 53.5719 133.156 53.716C133.032 54.0286 132.827 54.4405 132.501 54.8392C131.855 55.63 130.727 56.3815 128.779 56.1845C127.549 55.9489 126.849 55.122 126.453 54.3393C126.255 53.9473 126.134 53.569 126.064 53.2888C126.035 53.1737 126.014 53.0756 126 53Z" fill="#E7495C" stroke="#E7495C"/>
<path d="M126.463 41.8037C126.767 40.6767 126.393 39.5961 125.628 39.3898C124.863 39.1834 123.996 39.9298 123.692 41.0567C123.388 42.1837 123.761 43.2643 124.526 43.4707C125.291 43.6768 126.158 42.9307 126.463 41.8037Z" fill="black"/>
<path d="M137.72 45.0185C138.024 43.8915 137.651 42.8109 136.886 42.6045C136.121 42.3985 135.254 43.1446 134.95 44.2715C134.646 45.3985 135.019 46.4791 135.784 46.6855C136.549 46.8918 137.416 46.1454 137.72 45.0185Z" fill="black"/>
<path d="M123.612 35.9883L129.336 37.6328C129.435 37.6527 129.539 37.6357 129.627 37.5851C129.715 37.5345 129.782 37.4538 129.815 37.3577C129.841 37.1772 129.83 36.9933 129.784 36.8171C129.737 36.6406 129.655 36.4757 129.542 36.3322C129.43 36.1884 129.289 36.069 129.129 35.9812C128.97 35.8934 128.793 35.8385 128.612 35.8206L123.696 35.3036C123.318 35.2018 123.14 35.8612 123.612 35.9883Z" fill="black"/>
<path d="M143.184 40.8754L135.422 39.288C135.492 39.0572 135.61 38.8435 135.768 38.661C135.926 38.4782 136.12 38.3307 136.338 38.2278C136.556 38.1249 136.794 38.0687 137.035 38.063C137.277 38.0573 137.516 38.1022 137.739 38.1949L143.406 40.43C143.594 40.4806 143.467 40.9519 143.184 40.8754Z" fill="black"/>
<path d="M129.924 42.1289L126.242 47.0841L127.629 49.0433" stroke="#E56441" stroke-width="2.23881" stroke-linecap="round"/>
<path d="M136.769 95C137.482 95 139.5 94.5914 139.5 92.6228C139.5 90.6545 137.482 89.0586 136.769 89.0586C136.056 89.0586 134 90.6545 134 92.6228C134 94.5914 136.056 95 136.769 95Z" fill="white"/>
<path d="M196.266 145.23L177.126 146.797L173.858 132.934L169.922 122.273L190.066 119.863L192.584 131.795L196.266 145.23Z" fill="#FFCCB3"/>
<path d="M190.748 123.082L191.454 126.428L171.618 126.854L170.312 123.32L190.748 123.082Z" fill="#FF967C"/>
<path d="M175.057 107.638C182.371 107.638 188.301 101.711 188.301 94.4008C188.301 87.0905 182.371 81.1641 175.057 81.1641C167.742 81.1641 161.812 87.0905 161.812 94.4008C161.812 101.711 167.742 107.638 175.057 107.638Z" fill="#0B225C"/>
<path d="M172.499 88.1783C172.499 88.1783 186.457 85.8883 187.642 90.343C190.203 99.3008 193.351 113.681 194.116 120.559C194.142 120.851 194.11 121.146 194.021 121.426C193.933 121.705 193.789 121.965 193.6 122.189C193.411 122.414 193.179 122.598 192.918 122.732C192.656 122.867 192.371 122.948 192.078 122.972L171.057 124.765C170.243 124.84 169.431 124.602 168.788 124.098C168.145 123.594 167.72 122.863 167.599 122.056L161.906 96.2919L172.499 88.1783Z" fill="#0B225C"/>
<path d="M131.562 25.1064C131.562 25.1064 132.057 34.0312 139.622 38.356C139.622 38.356 141.834 45.2011 150.09 46.8109C150.09 46.8109 149.602 40.5195 153.537 40.5861C160.219 40.6992 156.933 50.8293 152.415 52.4912C149.345 53.6207 141.004 76.3767 164.504 68C174.969 64.2698 169.877 47.97 166.992 31.256C164.681 17.8711 148.078 13.5003 144.667 13.9363C144.667 13.9363 130.501 9.045 123.041 22.4597C116.665 33.9272 122.62 40.7711 122.62 40.7711L126.018 30.565C126.018 30.565 127.438 31.5612 131.562 25.1064Z" fill="black"/>
<path d="M196.338 178.298H145.641C144.66 178.298 143.714 177.94 142.978 177.292C142.243 176.643 141.77 175.749 141.648 174.776L136.969 137.452C136.898 136.886 136.948 136.311 137.116 135.766C137.284 135.221 137.567 134.718 137.945 134.29C138.322 133.863 138.786 133.52 139.307 133.286C139.827 133.051 140.391 132.93 140.962 132.93H201.017C201.588 132.93 202.152 133.051 202.672 133.286C203.193 133.52 203.657 133.863 204.034 134.29C204.412 134.718 204.695 135.221 204.863 135.766C205.031 136.311 205.081 136.886 205.01 137.452L200.331 174.776C200.209 175.749 199.736 176.643 199.001 177.292C198.265 177.94 197.319 178.298 196.338 178.298Z" fill="url(#paint1_linear_793_6842)"/>
<path d="M171.105 158.48C173.071 158.48 174.664 156.888 174.664 154.924C174.664 152.959 173.071 151.367 171.105 151.367C169.14 151.367 167.547 152.959 167.547 154.924C167.547 156.888 169.14 158.48 171.105 158.48Z" fill="white"/>
<path d="M54.4485 81.3382L51.3936 75.4806C51.3936 75.4806 40.5914 69.3049 39.3395 67.0723C38.0873 64.8391 37.5953 58.4639 39.8116 56.8315C39.8116 56.8315 31.1931 50.362 32.6603 49.0511C34.1226 47.6453 51.0555 60.217 51.0555 60.217C51.0555 60.217 48.9939 50.9551 52.1268 50.5211C52.9754 54.1109 54.4292 57.5302 56.4259 60.6322C59.7243 65.729 60.1307 70.294 60.1307 70.294L64.018 77.7504L54.4485 81.3382Z" fill="#FFCCB3"/>
<path d="M40.3906 56.9922L45.61 60.2796" stroke="#FF967C" stroke-width="2.87188" stroke-linecap="round" stroke-linejoin="round"/>
<path d="M39.6094 60.7539L44.039 63.5058" stroke="#FF967C" stroke-width="2.87188" stroke-linecap="round" stroke-linejoin="round"/>
<path d="M40.4766 64.8164L43.4311 66.6826" stroke="#FF967C" stroke-width="2.87188" stroke-linecap="round" stroke-linejoin="round"/>
<path d="M60.8079 12.7613C62.1818 12.7613 63.2954 11.6483 63.2954 10.2752C63.2954 8.9021 62.1818 7.78906 60.8079 7.78906C59.434 7.78906 58.3203 8.9021 58.3203 10.2752C58.3203 11.6483 59.434 12.7613 60.8079 12.7613Z" fill="white"/>
<path d="M70.8547 12.7613C72.2286 12.7613 73.3423 11.6483 73.3423 10.2752C73.3423 8.9021 72.2286 7.78906 70.8547 7.78906C69.4809 7.78906 68.3672 8.9021 68.3672 10.2752C68.3672 11.6483 69.4809 12.7613 70.8547 12.7613Z" fill="white"/>
<path d="M80.3001 12.7613C81.6739 12.7613 82.7876 11.6483 82.7876 10.2752C82.7876 8.9021 81.6739 7.78906 80.3001 7.78906C78.9262 7.78906 77.8125 8.9021 77.8125 10.2752C77.8125 11.6483 78.9262 12.7613 80.3001 12.7613Z" fill="white"/>
<path opacity="0.7" d="M5.57347 9.97247C15.5746 18.497 41.9498 37.9337 75.4475 38.8622C76.1326 38.8827 76.7824 39.1695 77.2593 39.6615C77.7363 40.1532 78.0024 40.8118 78.0016 41.4968V94.5431C78.0019 95.2198 77.7419 95.8707 77.2753 96.361C76.8086 96.8513 76.171 97.1435 75.4947 97.177C65.4233 97.6778 27.2318 97.6195 1.92561 70.5414C1.47428 70.0551 1.22458 69.4156 1.22657 68.7525V11.9814C1.22629 11.478 1.37019 10.9849 1.6415 10.5605C1.91281 10.1365 2.29986 9.79852 2.75716 9.58734C3.21418 9.37588 3.72266 9.2997 4.22177 9.3682C4.72087 9.43641 5.18983 9.64589 5.57347 9.97247Z" fill="#FF006B"/>
<path d="M9.36719 25.6055C9.36719 25.6055 17.2593 33.2697 28.0468 38.0305" stroke="white" stroke-width="5" stroke-miterlimit="10" stroke-linecap="round"/>
<path opacity="0.4" d="M9 35C9 35 19.9837 45.2393 34.2717 49.0411" stroke="white" stroke-width="5" stroke-miterlimit="10" stroke-linecap="round"/>
<path d="M7.73438 68.8718V46.7148L15.507 52.2738V74.9662L7.73438 68.8718Z" fill="white"/>
<path d="M20.8516 77.8298V62.043L28.6242 66.6887V82.2948L20.8516 77.8298Z" fill="white"/>
<path d="M54.0852 90.1822V74.3953L46.3125 73.332V88.9381L54.0852 90.1822Z" fill="white"/>
<path d="M66.8508 90.8588V63.2188H59.0781V90.6783L66.8508 90.8588Z" fill="white"/>
<path d="M33.5781 84.745V77.5273L41.3508 79.7119V87.5583L33.5781 84.745Z" fill="white"/>
<g opacity="0.7">
<path opacity="0.7" d="M25.0345 119.889C35.0356 127.229 61.4108 146.382 94.9085 143.34C95.2341 143.302 95.5646 143.334 95.8768 143.434C96.1891 143.535 96.476 143.702 96.7183 143.923C96.9606 144.144 97.1526 144.414 97.2809 144.716C97.4091 145.018 97.4711 145.344 97.4626 145.672V198.718C97.4455 199.42 97.187 200.095 96.7303 200.629C96.2738 201.163 95.647 201.523 94.9557 201.649C84.884 203.344 42.996 202.507 21.3863 180.891C21.1628 180.667 20.9859 180.401 20.8659 180.107C20.7459 179.815 20.6853 179.501 20.6876 179.185V122.413C20.6876 120.165 23.3227 118.633 25.0345 119.889Z" fill="#0B225C"/>
</g>
<path d="M186.016 176.777C186.016 176.777 188.695 176.999 188.292 178.351C187.888 179.702 185.496 179.078 183.312 180.43C181.128 181.781 172.492 182.745 168.178 182.027C163.865 181.308 162.667 176.777 162.667 176.777C162.667 176.777 161.945 172.478 169.565 172.036C177.184 171.595 180.73 174.038 182.055 176.687L186.016 176.777Z" fill="#FFCCB3"/>
<path d="M165.906 172.703L167.552 177.127" stroke="#E56441" stroke-width="2.23881" stroke-linecap="round"/>
<path d="M170.164 171.984L171.81 176.408" stroke="#E56441" stroke-width="2.23881" stroke-linecap="round"/>
<path d="M174.672 172.363L176.317 176.787" stroke="#E56441" stroke-width="2.23881" stroke-linecap="round"/>
<path opacity="0.7" d="M267.099 124.201C253.149 136.092 216.359 163.204 169.633 164.499C168.678 164.528 167.771 164.928 167.105 165.614C166.44 166.3 166.069 167.219 166.07 168.174V242.169C166.07 243.113 166.433 244.02 167.084 244.704C167.735 245.388 168.624 245.796 169.567 245.843C183.616 246.541 236.888 246.46 272.189 208.689C272.818 208.01 273.168 207.118 273.165 206.193V127.003C273.165 126.301 272.963 125.614 272.585 125.021C272.206 124.43 271.666 123.958 271.029 123.664C270.392 123.369 269.681 123.263 268.987 123.358C268.29 123.453 267.636 123.746 267.099 124.201Z" fill="#FF006B"/>
<path d="M261.806 146.012C261.806 146.012 250.797 156.703 235.75 163.344" stroke="white" stroke-width="5" stroke-miterlimit="10" stroke-linecap="round"/>
<path opacity="0.4" d="M261.808 158.973C261.808 158.973 246.485 173.255 226.555 178.559" stroke="white" stroke-width="5" stroke-miterlimit="10" stroke-linecap="round"/>
<path d="M254.65 100.801H212.065C211.23 100.801 210.402 100.965 209.631 101.285C208.859 101.604 208.157 102.073 207.566 102.663C206.976 103.254 206.507 103.955 206.187 104.726C205.868 105.497 205.703 106.324 205.703 107.159V120.327C205.703 121.162 205.868 121.989 206.187 122.76C206.507 123.532 206.976 124.233 207.566 124.823C208.157 125.414 208.859 125.882 209.631 126.201C210.402 126.521 211.23 126.685 212.065 126.685H227.184L231.643 131.144C232.061 131.561 232.627 131.796 233.219 131.796C233.81 131.796 234.376 131.561 234.794 131.144L239.253 126.685H254.65C256.337 126.685 257.958 126.015 259.149 124.823C260.344 123.631 261.012 122.013 261.012 120.327V107.159C261.012 105.473 260.344 103.856 259.149 102.663C257.958 101.471 256.337 100.801 254.65 100.801Z" fill="#0E1027"/>
<path d="M223.766 109.562C223.197 109.037 222.452 108.746 221.679 108.746C220.905 108.746 220.16 109.037 219.591 109.562L218.805 110.288L218.019 109.562C217.451 109.037 216.705 108.746 215.931 108.746C215.158 108.746 214.412 109.037 213.844 109.562C213.544 109.834 213.304 110.165 213.139 110.535C212.975 110.905 212.891 111.305 212.891 111.709C212.891 112.114 212.975 112.514 213.139 112.884C213.304 113.253 213.544 113.585 213.844 113.856L218.805 118.452L223.766 113.916C224.079 113.647 224.332 113.313 224.503 112.937C224.676 112.561 224.764 112.153 224.764 111.74C224.764 111.326 224.676 110.918 224.503 110.542C224.332 110.166 224.079 109.832 223.766 109.562Z" fill="#FF006B"/>
<path d="M229.31 112.249C229.353 111.692 229.569 111.256 229.956 110.941C230.343 110.626 230.846 110.469 231.463 110.469C231.876 110.469 232.231 110.544 232.527 110.696C232.831 110.841 233.059 111.041 233.209 111.295C233.366 111.549 233.446 111.837 233.446 112.158C233.446 112.533 233.337 112.857 233.118 113.129C232.905 113.402 232.626 113.578 232.282 113.656V113.702C232.675 113.798 232.988 113.989 233.218 114.274C233.448 114.558 233.565 114.931 233.565 115.391C233.565 115.736 233.485 116.048 233.326 116.326C233.17 116.599 232.934 116.814 232.618 116.971C232.302 117.128 231.924 117.207 231.483 117.207C230.84 117.207 230.314 117.041 229.902 116.708C229.49 116.368 229.259 115.89 229.211 115.273H230.01C230.053 115.636 230.201 115.933 230.457 116.163C230.71 116.393 231.051 116.508 231.475 116.508C231.898 116.508 232.22 116.399 232.436 116.181C232.661 115.957 232.774 115.669 232.774 115.318C232.774 114.864 232.621 114.537 232.319 114.337C232.015 114.138 231.557 114.038 230.946 114.038H230.738V113.347H230.957C231.512 113.341 231.935 113.25 232.22 113.075C232.504 112.893 232.646 112.615 232.646 112.239C232.646 111.919 232.541 111.661 232.328 111.468C232.123 111.274 231.825 111.177 231.438 111.177C231.062 111.177 230.758 111.274 230.528 111.468C230.297 111.661 230.161 111.922 230.121 112.249H229.31ZM235.669 116.017L234.654 118.46H234.1L234.762 116.017H235.669ZM240.669 111.313H237.481V113.384C237.62 113.19 237.825 113.033 238.098 112.912C238.371 112.784 238.664 112.721 238.98 112.721C239.483 112.721 239.893 112.827 240.205 113.039C240.521 113.245 240.746 113.514 240.879 113.847C241.019 114.174 241.087 114.522 241.087 114.891C241.087 115.327 241.007 115.718 240.842 116.063C240.68 116.408 240.427 116.68 240.089 116.88C239.756 117.08 239.341 117.18 238.843 117.18C238.209 117.18 237.694 117.016 237.299 116.689C236.907 116.362 236.665 115.926 236.582 115.382H237.39C237.47 115.727 237.635 115.996 237.891 116.19C238.144 116.384 238.465 116.48 238.852 116.48C239.332 116.48 239.691 116.338 239.935 116.054C240.177 115.763 240.296 115.382 240.296 114.91C240.296 114.437 240.177 114.074 239.935 113.82C239.691 113.559 239.335 113.429 238.863 113.429C238.542 113.429 238.26 113.508 238.016 113.665C237.78 113.817 237.609 114.026 237.498 114.292H236.719V110.587H240.669V111.313ZM242.088 116.499C242.856 115.881 243.459 115.376 243.894 114.982C244.332 114.583 244.699 114.168 244.995 113.738C245.299 113.302 245.45 112.875 245.45 112.457C245.45 112.064 245.353 111.755 245.16 111.531C244.972 111.301 244.665 111.186 244.241 111.186C243.829 111.186 243.507 111.316 243.277 111.577C243.052 111.831 242.933 112.173 242.913 112.603H242.114C242.139 111.925 242.344 111.401 242.731 111.032C243.12 110.662 243.621 110.478 244.232 110.478C244.855 110.478 245.35 110.65 245.711 110.995C246.081 111.34 246.266 111.816 246.266 112.421C246.266 112.924 246.115 113.414 245.814 113.892C245.515 114.365 245.177 114.782 244.796 115.146C244.414 115.503 243.925 115.921 243.331 116.399H246.456V117.089H242.088V116.499ZM251.456 111.241L248.931 117.162H248.094L250.657 111.322H247.15V110.614H251.456V111.241Z" fill="white"/>
<path opacity="0.7" d="M4.7968 221.993H36.9036C37.5335 221.993 38.1571 221.869 38.7393 221.628C39.3212 221.388 39.8501 221.034 40.2955 220.589C40.7408 220.144 41.094 219.616 41.3352 219.034C41.5764 218.452 41.7004 217.829 41.7004 217.2V207.272C41.7004 206.642 41.5764 206.019 41.3352 205.437C41.094 204.856 40.7408 204.327 40.2955 203.882C39.8501 203.437 39.3212 203.084 38.7393 202.843C38.1571 202.602 37.5335 202.478 36.9036 202.478H25.5061L22.1426 199.116C21.8278 198.802 21.4006 198.625 20.9553 198.625C20.5102 198.625 20.083 198.802 19.7682 199.116L16.4047 202.478H4.7968C3.52444 202.478 2.30441 202.983 1.40489 203.882C0.505361 204.781 0 206 0 207.272V217.2C0 218.471 0.505361 219.69 1.40489 220.589C2.30441 221.488 3.52444 221.993 4.7968 221.993Z" fill="#FF006B"/>
<path d="M19.9219 214.674C20.502 214.209 20.9562 213.828 21.2852 213.531C21.614 213.23 21.8904 212.917 22.1142 212.593C22.3426 212.264 22.4566 211.942 22.4566 211.627C22.4566 211.331 22.3836 211.098 22.2374 210.929C22.0958 210.756 21.8651 210.669 21.5455 210.669C21.2349 210.669 20.9929 210.767 20.8194 210.963C20.6505 211.155 20.5589 211.413 20.5453 211.737H19.9423C19.9608 211.226 20.1161 210.831 20.4082 210.553C20.7005 210.274 21.0774 210.135 21.5386 210.135C22.009 210.135 22.3813 210.265 22.6554 210.525C22.9338 210.785 23.0732 211.144 23.0732 211.6C23.0732 211.979 22.9592 212.349 22.7308 212.709C22.507 213.065 22.251 213.38 21.9635 213.654C21.6757 213.923 21.308 214.238 20.8604 214.599H23.2171V215.119H19.9219V214.674ZM23.787 214.072V213.599L26.1915 210.272H26.9383V213.531H27.6234V214.072H26.9383V215.174H26.3218V214.072H23.787ZM26.3491 210.922L24.5062 213.531H26.3491V210.922ZM28.2326 211.47C28.2644 211.05 28.4265 210.721 28.7189 210.484C29.0113 210.247 29.3904 210.128 29.8562 210.128C30.1667 210.128 30.4338 210.185 30.6576 210.299C30.886 210.409 31.0572 210.559 31.1715 210.751C31.2901 210.943 31.3495 211.16 31.3495 211.402C31.3495 211.685 31.2673 211.929 31.1029 212.134C30.9431 212.339 30.733 212.472 30.4727 212.531V212.565C30.7696 212.638 31.0048 212.782 31.1783 212.997C31.3518 213.211 31.4385 213.492 31.4385 213.839C31.4385 214.099 31.3791 214.334 31.2605 214.544C31.1416 214.75 30.9636 214.912 30.7261 215.03C30.4887 215.149 30.2031 215.208 29.8698 215.208C29.3858 215.208 28.9882 215.083 28.6777 214.832C28.3671 214.576 28.1936 214.216 28.1572 213.75H28.7599C28.792 214.024 28.9038 214.248 29.0957 214.421C29.2874 214.595 29.5434 214.681 29.863 214.681C30.1827 214.681 30.4247 214.599 30.5891 214.435C30.758 214.266 30.8427 214.049 30.8427 213.784C30.8427 213.442 30.7284 213.195 30.5 213.045C30.2717 212.894 29.927 212.819 29.4657 212.819H29.3082V212.299H29.4725C29.8926 212.294 30.21 212.226 30.4247 212.093C30.6394 211.956 30.7466 211.746 30.7466 211.463C30.7466 211.221 30.6667 211.027 30.5069 210.881C30.3516 210.735 30.1278 210.662 29.8354 210.662C29.5525 210.662 29.3241 210.735 29.1503 210.881C28.9769 211.027 28.8742 211.224 28.842 211.47H28.2326ZM35.0412 211.402C34.9408 210.895 34.628 210.642 34.1027 210.642C33.696 210.642 33.3923 210.799 33.1915 211.114C32.9904 211.424 32.8923 211.938 32.8969 212.654C33.0018 212.417 33.1756 212.232 33.4176 212.1C33.6642 211.963 33.9383 211.894 34.2395 211.894C34.7101 211.894 35.0844 212.04 35.3631 212.333C35.6464 212.625 35.788 213.029 35.788 213.545C35.788 213.855 35.7263 214.134 35.6028 214.38C35.4843 214.626 35.3014 214.823 35.0548 214.969C34.8128 215.115 34.5182 215.188 34.1712 215.188C33.7006 215.188 33.3331 215.083 33.0681 214.873C32.8033 214.663 32.6182 214.373 32.5132 214.003C32.4083 213.634 32.3557 213.177 32.3557 212.634C32.3557 210.959 32.9404 210.121 34.1095 210.121C34.5571 210.121 34.9086 210.242 35.1646 210.484C35.4203 210.726 35.571 211.032 35.6165 211.402H35.0412ZM34.1095 212.422C33.913 212.422 33.7282 212.463 33.5547 212.545C33.3809 212.623 33.2393 212.743 33.1298 212.908C33.0249 213.068 32.9722 213.264 32.9722 213.497C32.9722 213.844 33.0726 214.126 33.2737 214.346C33.4748 214.56 33.7623 214.668 34.1368 214.668C34.4565 214.668 34.7101 214.569 34.8973 214.373C35.0892 214.172 35.1851 213.903 35.1851 213.565C35.1851 213.209 35.0938 212.931 34.9109 212.73C34.7283 212.525 34.461 212.422 34.1095 212.422Z" fill="white"/>
<path d="M175.688 213.734C175.688 213.734 185.927 211.591 190.608 206.627C196.811 200.051 198.242 192.163 205.038 191.352C215.703 190.08 221.886 227.713 234.835 222.621C247.783 217.53 244.723 189.426 252.427 184.663C257.734 181.381 260.492 191.14 267.923 188.594" stroke="white" stroke-width="5" stroke-miterlimit="10" stroke-linecap="round"/>
<path opacity="0.7" d="M74.9286 182.851C82.5826 185.035 100.489 188.938 123.953 186.246C124.33 186.193 124.714 186.222 125.078 186.331C125.443 186.441 125.779 186.629 126.064 186.881C126.349 187.134 126.575 187.445 126.727 187.794C126.879 188.143 126.954 188.521 126.945 188.901V225.093C126.928 225.892 126.629 226.658 126.102 227.258C125.575 227.858 124.853 228.254 124.063 228.374C115.708 229.515 90.9027 231.957 72.4174 223.98C71.9445 223.771 71.544 223.427 71.2667 222.99C70.9895 222.554 70.8481 222.045 70.8601 221.529V186.052C70.8601 183.954 72.9737 182.293 74.9286 182.851Z" fill="url(#paint2_linear_793_6842)"/>
<path d="M6.26782 216.179H7.3195C7.51487 216.179 7.702 216.101 7.83993 215.963C7.97814 215.825 8.05578 215.638 8.05606 215.443V210.607C8.05578 210.412 7.97814 210.225 7.83993 210.087C7.702 209.949 7.51487 209.871 7.3195 209.871H6.26782C6.07244 209.871 5.88532 209.949 5.74739 210.087C5.60918 210.225 5.53153 210.412 5.53125 210.607V215.443C5.53153 215.638 5.60918 215.825 5.74739 215.963C5.88532 216.101 6.07244 216.179 6.26782 216.179Z" fill="white"/>
<path d="M10.9094 206.82C10.4888 206.82 10.2784 207.031 10.2784 208.082C10.2784 209.081 9.31031 209.885 8.6875 210.3V215.509C9.36122 215.821 10.7095 216.282 12.8029 216.282H13.4761C13.8731 216.283 14.257 216.143 14.5604 215.887C14.8639 215.632 15.0672 215.277 15.134 214.886L15.6053 212.153C15.6471 211.911 15.6357 211.664 15.5714 211.427C15.5075 211.19 15.3926 210.971 15.2347 210.783C15.0766 210.596 14.8795 210.445 14.6574 210.342C14.435 210.238 14.1927 210.185 13.9476 210.185H11.9614C12.1849 209.653 12.2927 209.079 12.2771 208.503C12.2771 207.241 11.3303 206.821 10.9094 206.821V206.82Z" fill="white"/>
<path d="M41.317 173.565C35.7362 171.599 31.2121 165.483 31.2121 159.905C31.2121 154.327 35.7362 151.4 41.317 153.366V146.884C32.301 143.706 24.9922 148.436 24.9922 157.447C24.9922 166.457 32.301 176.338 41.317 179.515C49.9522 182.558 57.0168 178.346 57.5986 170.068L51.3827 167.878C50.9433 172.896 46.6061 175.429 41.317 173.565Z" fill="white"/>
<path d="M43.3906 145.539V152.021C48.9715 153.988 53.4956 160.104 53.4956 165.682C53.4956 165.974 53.4805 166.256 53.4563 166.533L59.6719 168.724C59.6975 168.358 59.7154 167.988 59.7154 167.607C59.7154 158.596 52.4064 148.716 43.3906 145.539Z" fill="#FF006B"/>
<path d="M41.3125 173.562V179.513" stroke="white" stroke-width="2.42819" stroke-miterlimit="10"/>
<path d="M31.2121 159.903L24.9922 157.711" stroke="white" stroke-width="2.42819" stroke-miterlimit="10"/>
<path d="M67.5 160.832L79.0414 163.024" stroke="white" stroke-width="5" stroke-miterlimit="10" stroke-linecap="round"/>
<path opacity="0.4" d="M67.5 178.902L79.0414 181.094" stroke="white" stroke-width="5" stroke-miterlimit="10" stroke-linecap="round"/>
<path d="M67.5 170.047L84.0814 173.196" stroke="white" stroke-width="5" stroke-miterlimit="10" stroke-linecap="round"/>
<g opacity="0.7">
<path opacity="0.7" d="M275.647 5.77588C265.645 13.1151 247.35 31.6223 207.42 37.7713C204.363 38.242 203.219 40.4158 203.219 42.8178V93.416C203.236 94.1181 203.494 94.7928 203.951 95.3266C204.408 95.8604 205.034 96.2208 205.726 96.3467C215.797 98.0413 254.585 88.1527 277.78 68.2439C279.995 66.3424 279.995 63.1526 279.995 62.4897V8.30028C279.995 6.05203 277.359 4.51979 275.647 5.77588Z" fill="url(#paint3_linear_793_6842)"/>
</g>
<path d="M208.5 46.7899V78.0859C208.5 78.3585 208.561 78.6274 208.679 78.8729C208.796 79.1185 208.968 79.3345 209.181 79.5051C209.393 79.6753 209.642 79.7958 209.907 79.8575C210.173 79.9189 210.448 79.92 210.715 79.8606C216.418 78.5839 231.847 74.8926 241.59 70.2986C241.903 70.1514 242.164 69.9186 242.349 69.6276C242.531 69.3365 242.631 68.9992 242.628 68.655V38.1778C242.631 37.8731 242.554 37.5732 242.406 37.3055C242.261 37.038 242.051 36.8118 241.792 36.6472C241.536 36.4826 241.243 36.3851 240.939 36.3638C240.634 36.3425 240.33 36.3979 240.051 36.5253C234.622 39.0245 221.575 44.4839 210.226 44.9751C209.76 44.9972 209.32 45.1985 208.999 45.5364C208.677 45.8744 208.499 46.3235 208.5 46.7899Z" fill="white"/>
<path d="M209.906 73.0535V76.3452C209.906 76.5944 209.964 76.8403 210.074 77.0637C210.185 77.2871 210.345 77.4821 210.544 77.6333C210.742 77.7845 210.972 77.8879 211.217 77.9354C211.462 77.9832 211.714 77.9738 211.955 77.9081L229.022 73.2448C229.292 73.1715 229.536 73.0299 229.735 72.8338C229.934 72.6377 230.077 72.3941 230.153 72.1258C230.23 71.8578 230.236 71.5747 230.17 71.3038C230.105 71.0327 229.971 70.7831 229.784 70.579L220.632 60.7399C220.467 60.5634 220.268 60.4256 220.043 60.3369C219.819 60.2479 219.577 60.2101 219.336 60.2263C219.096 60.2425 218.862 60.3121 218.652 60.4301C218.441 60.5483 218.26 60.7118 218.121 60.9087L210.203 72.119C210.01 72.3924 209.906 72.7187 209.906 73.0535Z" fill="#0B225C"/>
<path opacity="0.6" d="M227.313 65.3283L232.435 70.7599C232.599 70.9347 232.813 71.0564 233.046 71.109C233.279 71.1618 233.524 71.1433 233.748 71.0561C235.261 70.4655 238.66 69.1302 240.38 68.3906C240.597 68.2974 240.779 68.1433 240.909 67.9469C241.037 67.7505 241.106 67.5206 241.106 67.2855V62.1961C241.106 61.9363 241.02 61.6837 240.867 61.4759L233.666 51.8355C233.535 51.6624 233.362 51.5271 233.163 51.4441C232.963 51.3611 232.745 51.3332 232.531 51.3634C232.318 51.3938 232.116 51.4807 231.945 51.6157C231.778 51.7508 231.65 51.9284 231.573 52.1305L227.062 64.0774C226.983 64.2886 226.963 64.5177 227.008 64.7388C227.051 64.96 227.159 65.164 227.313 65.3283Z" fill="#0B225C"/>
<path d="M222.813 56.8474C224.331 56.8474 225.563 55.6173 225.563 54.0995C225.563 52.5817 224.331 51.3516 222.813 51.3516C221.294 51.3516 220.062 52.5817 220.062 54.0995C220.062 55.6173 221.294 56.8474 222.813 56.8474Z" fill="#FF006B"/>
<path d="M250.562 35.5085C257.618 31.9324 264.409 27.8551 270.882 23.3086" stroke="white" stroke-width="5" stroke-miterlimit="10" stroke-linecap="round"/>
<path d="M250.562 47.3772C250.562 47.3772 255.187 45.1247 261.531 41.2773" stroke="white" stroke-width="5" stroke-miterlimit="10" stroke-linecap="round"/>
<path d="M250.562 58.9812C257.618 55.4047 264.409 51.3278 270.882 46.7812" stroke="white" stroke-width="5" stroke-miterlimit="10" stroke-linecap="round"/>
<path d="M250.562 72.0085C257.618 68.4321 264.409 64.3551 270.882 59.8086" stroke="white" stroke-width="5" stroke-miterlimit="10" stroke-linecap="round"/>
<path d="M212.417 88.883C213.804 88.883 214.929 87.7595 214.929 86.3733C214.929 84.9871 213.804 83.8633 212.417 83.8633C211.03 83.8633 209.906 84.9871 209.906 86.3733C209.906 87.7595 211.03 88.883 212.417 88.883Z" fill="white"/>
<path d="M226.988 84.8241C228.373 84.8241 229.499 83.7006 229.499 82.3144C229.499 80.9282 228.373 79.8047 226.988 79.8047C225.6 79.8047 224.477 80.9282 224.477 82.3144C224.477 83.7006 225.6 84.8241 226.988 84.8241Z" fill="white"/>
<path d="M240.121 80.344C241.508 80.344 242.632 79.2201 242.632 77.834C242.632 76.4478 241.508 75.3242 240.121 75.3242C238.736 75.3242 237.609 76.4478 237.609 77.834C237.609 79.2201 238.736 80.344 240.121 80.344Z" fill="white"/>
<path d="M155 47L155.5 46L158 47.5L157.5 48.5L155 47Z" fill="#818181" stroke="#818181"/>
<path d="M153.059 49.7054C152.981 49.5487 152.918 49.1881 153.295 49C153.53 49 153.765 49 154 49.2351V49.7054L153.765 49.9405C153.608 50.0189 153.248 50.0816 153.059 49.7054Z" fill="#818181" stroke="#818181"/>
<defs>
<linearGradient id="paint0_linear_793_6842" x1="118.782" y1="-217.393" x2="221.055" y2="417.12" gradientUnits="userSpaceOnUse">
<stop stop-color="#0B225C"/>
<stop offset="1" stop-color="#94B9FF"/>
</linearGradient>
<linearGradient id="paint1_linear_793_6842" x1="169.294" y1="132.822" x2="176.287" y2="229.639" gradientUnits="userSpaceOnUse">
<stop stop-color="white"/>
<stop offset="1" stop-color="#94B9FF"/>
</linearGradient>
<linearGradient id="paint2_linear_793_6842" x1="97.5066" y1="182.631" x2="106.551" y2="282.409" gradientUnits="userSpaceOnUse">
<stop stop-color="white"/>
<stop offset="1" stop-color="#94B9FF"/>
</linearGradient>
<linearGradient id="paint3_linear_793_6842" x1="232.348" y1="-108.371" x2="289.837" y2="191.666" gradientUnits="userSpaceOnUse">
<stop stop-color="white"/>
<stop offset="1" stop-color="#0B225C"/>
</linearGradient>
</defs>
</svg>
